<svg viewBox="0 0 239 203" fill="none" xmlns="http://www.w3.org/2000/svg">
    <path d="M87.1 27.2L99.9 13.5L126.1 4.6L151.1 1.6L176.1 4.6L202.3 13.5L215.1 27.2L202.3 38L176.1 46.8L151.1 49.5L126.1 46.8L99.9 38L87.1 27.2Z" fill="#C3E06D" stroke="#C3E06D" stroke-width="3.1" stroke-linecap="round" stroke-linejoin="round"/>
    <path d="M87.1 27.2L99.9 19.9L123.6 13.2V24.5L127 35.9L136.8 43.6L151.1 46.4L166.2 43.6L175.2 35.9L178.6 24.5V13.2L202.3 19.9L215.1 27.2L202.3 13.5L176.1 4.6L151.1 1.6L126.1 4.6L99.9 13.5L87.1 27.2" fill="#1A1A1A"/>
    <path d="M22.2 11.7L40.2 56.8L43.7 43.5L60.5 60.3C63.9 56.9 67.3 53.5 70.7 50.1L53.9 33.3L67.2 29.7L22.2 11.7Z" fill="#1A1A1A" stroke="#C3E06D" stroke-width="2" stroke-linejoin="round"/>
    <path d="M179.2 92.4L183.9 73.9L201.9 59.2L222.3 63.2L237.6 83.5L235.7 115.5L232.1 132.9L220.1 151.5L206.9 158.6L201 169.1L189 176L178.6 169.1L181.3 143.1L188 137.2L191 112.7L179.2 92.4Z" fill="#C3E06D" stroke="#1A1A1A" stroke-width="2.3" stroke-linejoin="round"/>
    <path d="M191 112.7L198.5 116.5L203.2 114L193.4 99.3L203.6 105.4L212.6 119.5L210.2 132.8L202.5 136.4L195.6 134.3L188 137.2L191 112.7Z" fill="#1A1A1A" stroke="#1A1A1A" stroke-width="2" stroke-linejoin="round"/>
    <path d="M193.4 99.3L190.3 85.5L192.4 76.5L204.8 67.8L219.4 70.9L230.8 87.5L227.6 114.3L224.1 129.5L226.3 115L227.7 89.6L217 74.1L205.5 71.2L195.4 77.4L194.2 85.9L197.4 101.7L193.4 99.3Z" fill="#1A1A1A" stroke="#1A1A1A" stroke-width="2" stroke-linecap="round" stroke-linejoin="round"/>
    <path d="M131.5 141.7H102.7V170.5H131.5V141.7Z" fill="#C3E06D" stroke="#1A1A1A" stroke-width="1.3" stroke-linecap="round" stroke-linejoin="round"/>
    <path d="M112 156.3L117.1 149.5L122.2 156.3" fill="#C3E06D"/>
    <path d="M112 156.3L117.1 149.5L122.2 156.3" stroke="#1A1A1A" stroke-width="1.3" stroke-linecap="round" stroke-linejoin="round"/>
    <path d="M117.1 149.5V162.7Z" fill="#C3E06D"/>
    <path d="M117.1 149.5V162.7" stroke="#1A1A1A" stroke-width="1.3" stroke-linecap="round" stroke-linejoin="round"/>
    <path d="M131.5 172.8H102.7V201.6H131.5V172.8Z" fill="#C3E06D" stroke="#1A1A1A" stroke-width="1.3" stroke-linecap="round" stroke-linejoin="round"/>
    <path d="M122.2 187L117.1 193.8L112 187" fill="#C3E06D"/>
    <path d="M122.2 187L117.1 193.8L112 187" stroke="#1A1A1A" stroke-width="1.3" stroke-linecap="round" stroke-linejoin="round"/>
    <path d="M117.1 193.8V180.6Z" fill="#C3E06D"/>
    <path d="M117.1 193.8V180.6" stroke="#1A1A1A" stroke-width="1.3" stroke-linecap="round" stroke-linejoin="round"/>
    <path d="M162.6 172.8H133.8V201.6H162.6V172.8Z" fill="#C3E06D" stroke="#1A1A1A" stroke-width="1.3" stroke-linecap="round" stroke-linejoin="round"/>
    <path d="M148 182.1L154.8 187.2L148 192.3" fill="#C3E06D"/>
    <path d="M148 182.1L154.8 187.2L148 192.3" stroke="#1A1A1A" stroke-width="1.3" stroke-linecap="round" stroke-linejoin="round"/>
    <path d="M154.8 187.2H141.6Z" fill="#C3E06D"/>
    <path d="M154.8 187.2H141.6" stroke="#1A1A1A" stroke-width="1.3" stroke-linecap="round" stroke-linejoin="round"/>
    <path d="M100.4 172.8H71.7V201.6H100.4V172.8Z" fill="#C3E06D" stroke="#1A1A1A" stroke-width="1.3" stroke-linecap="round" stroke-linejoin="round"/>
    <path d="M86.3 192.3L79.5 187.2L86.3 182.1" fill="#C3E06D"/>
    <path d="M86.3 192.3L79.5 187.2L86.3 182.1" stroke="#1A1A1A" stroke-width="1.3" stroke-linecap="round" stroke-linejoin="round"/>
    <path d="M79.5 187.2H92.6Z" fill="#C3E06D"/>
    <path d="M79.5 187.2H92.6" stroke="#1A1A1A" stroke-width="1.3" stroke-linecap="round" stroke-linejoin="round"/>
    <path d="M16.6 75.5L21.9 74.8L26.9 76.8L30.2 81L30.9 86.3L28.9 91.3L24.7 94.6L19.3 95.4L14.4 93.4L11 89.1L10.3 83.8L12.3 78.8L16.6 75.5Z" stroke="#C3E06D" stroke-width="1.5" stroke-linecap="round" stroke-linejoin="round"/>
    <path d="M17.8 78.4L21.5 77.9L25 79.3L27.3 82.2L27.8 86L26.4 89.5L23.4 91.8L19.7 92.3L16.2 90.9L13.9 87.9L13.4 84.2L14.8 80.7L17.8 78.4Z" stroke="#C3E06D" stroke-width="1" stroke-linecap="round" stroke-linejoin="round"/>
    <path d="M21.2 167.4L5.2 144L1.5 125L3.4 111.5L7.2 109.2L10.8 112L12.2 123.5L14.5 128.7L15.7 120L16.6 83.3L20.6 81.1L24.2 83.1L27.2 116L29 108.2L33.3 106.8L37.5 108.2L39.2 117.3L41.7 113.8L45.7 113.6L48.5 116.2L49.9 122.9L52.1 120L55 120.2L58.6 123.3L61.2 133.6L56.8 167.4" fill="#C3E06D"/>
    <path d="M21.2 167.4L5.2 144L1.5 125L3.4 111.5L7.2 109.2L10.8 112L12.2 123.5L14.5 128.7L15.7 120L16.6 83.3L20.6 81.1L24.2 83.1L27.2 116L29 108.2L33.3 106.8L37.5 108.2L39.2 117.3L41.7 113.8L45.7 113.6L48.5 116.2L49.9 122.9L52.1 120L55 120.2L58.6 123.3L61.2 133.6L56.8 167.4" stroke="#1A1A1A" stroke-width="1.5" stroke-linecap="round" stroke-linejoin="round"/>
</svg>