<svg viewBox="0 0 304 80" fill="none" xmlns="http://www.w3.org/2000/svg">
    <path d="M2.2 42.5L22.4 21L63.7 6.9L103 2.2L142.3 6.9L183.7 21L203.8 42.5L183.7 59.5L142.3 73.4L103 77.7L63.7 73.4L22.4 59.5L2.2 42.5Z" fill="white" stroke="white" stroke-width="3.1" stroke-linecap="round" stroke-linejoin="round"/>
    <path d="M2.2 42.5L22.4 31.1L59.7 20.5V38.3L65.1 56.2L80.4 68.4L103 72.7L126.8 68.4L140.9 56.2L146.4 38.3V20.5L183.7 31.1L203.8 42.5L183.7 21L142.3 6.9L103 2.2L63.7 6.9L22.4 21L2.2 42.5" fill="#B25C59"/>
    <path d="M225.8 1.7L254.1 72.7L259.8 51.7L286.2 78.2C291.6 72.8 296.9 67.5 302.2 62.1L275.8 35.7L296.8 30.1L225.8 1.7Z" fill="#B25C59" stroke="white" stroke-width="2" stroke-linejoin="round"/>
</svg>