<svg  viewBox="0 0 401 88" fill="none" xmlns="http://www.w3.org/2000/svg">
    <path d="M354.2 20.6C354.4 19 354.8 17.4 355.3 15.7C355.8 14.1 356.5 12.6 357.4 11.3C358.3 10.1 359.5 9.1 360.9 8.3C362.2 7.6 363.9 7.3 366 7.6L376.4 9.1C378 9.3 379.4 9.9 380.6 10.7C381.8 11.6 382.7 12.5 383.3 13.7C384 14.9 384.5 16.1 384.8 17.5C385.1 19 385.2 20.3 385.1 21.7C385.1 23.1 384.8 24.3 384.4 25.5C384 26.8 383.5 27.8 382.9 28.7L372.4 42.8L371.5 49.5L362.9 48.2L364 40.7L373.8 28C374.4 27.3 374.8 26.4 375.1 25.2C375.5 24.1 375.6 22.9 375.6 21.8C375.6 20.6 375.4 19.6 374.9 18.7C374.4 17.9 373.7 17.4 372.7 17.2L367.8 16.5C367 16.4 366.3 16.5 365.7 16.7C365.1 16.9 364.6 17.2 364.2 17.7C363.8 18.1 363.5 18.7 363.3 19.5C363.1 20.1 363 20.9 362.8 21.8L354.2 20.6ZM369.8 63.2L361 61.9L362.2 53.2L371 54.5L369.8 63.2Z" fill="#B25C59"/>
    <path d="M10.7 23C10.4 21.5 10.3 20.1 10.3 18.5C10.3 17 10.5 15.5 10.9 14.2C11.4 12.8 12.1 11.6 13.1 10.6C14 9.6 15.4 9 17.2 8.6L26.6 7.1C28 6.8 29.4 6.9 30.6 7.4C31.8 7.8 32.9 8.4 33.8 9.2C34.7 10 35.4 11 36 12.1C36.7 13.2 37.1 14.4 37.4 15.5C37.8 16.7 37.9 17.9 37.9 19C37.9 20.2 37.7 21.2 37.4 22.1L32.2 37L33.2 43L25.6 44.3L24.5 37.5L29.5 24C29.7 23.3 29.9 22.4 29.8 21.3C29.8 20.2 29.7 19.2 29.3 18.2C29 17.2 28.5 16.4 27.9 15.8C27.3 15.1 26.5 14.9 25.6 15.1L21.2 15.8C20.5 15.9 19.9 16.1 19.4 16.5C19 16.8 18.6 17.2 18.4 17.8C18.2 18.3 18.1 18.8 18.2 19.5C18.2 20.2 18.3 20.9 18.4 21.7L10.7 23ZM35.5 55.2L27.6 56.6L26.3 48.8L34.2 47.5L35.5 55.2Z" fill="#B25C59"/>
    <path d="M344.4 1.7H257.4V43.8H344.4V1.7Z" fill="#B25C59" stroke="white" stroke-width="1.5" stroke-linecap="round" stroke-linejoin="round"/>
    <path d="M270.9 32.5V28.8H274.8V32.5H270.9Z" fill="white"/>
    <path d="M284 28C284.5 28 284.9 27.9 285.3 27.7C285.7 27.4 285.9 27.1 286 26.6H289.9C289.7 28.2 289.1 29.4 288.1 30.3C287 31.3 285.7 31.7 284 31.7H282.7C281.7 31.7 280.9 31.6 280.1 31.3C279.4 31 278.8 30.6 278.2 30.1C277.7 29.6 277.3 28.9 277 28.2C276.7 27.5 276.6 26.6 276.6 25.7V21.3C276.6 20.4 276.7 19.5 277 18.8C277.3 18.1 277.7 17.5 278.2 16.9C278.8 16.4 279.4 16 280.1 15.7C280.9 15.4 281.7 15.3 282.7 15.3H284C285.7 15.3 287.1 15.8 288.1 16.7C289.1 17.6 289.7 18.9 289.9 20.5H286.1C285.9 20 285.7 19.7 285.3 19.4C285 19.1 284.5 19 284 19H282.7C282 19 281.4 19.2 280.9 19.7C280.5 20.1 280.3 20.7 280.3 21.4V25.6C280.3 26.3 280.5 26.9 280.9 27.3C281.4 27.8 282 28 282.7 28H284Z" fill="white"/>
    <path d="M298.7 15.3C299.7 15.3 300.5 15.4 301.2 15.7C302 16 302.6 16.4 303.1 16.9C303.7 17.5 304.1 18.1 304.4 18.8C304.6 19.5 304.8 20.4 304.8 21.3V25.7C304.8 26.6 304.6 27.5 304.4 28.2C304.1 28.9 303.7 29.6 303.1 30.1C302.6 30.6 302 31 301.2 31.3C300.5 31.6 299.7 31.7 298.7 31.7H297.4C296.5 31.7 295.6 31.6 294.9 31.3C294.1 31 293.5 30.6 292.9 30.1C292.4 29.6 292 28.9 291.7 28.2C291.5 27.5 291.4 26.6 291.4 25.7V21.3C291.4 20.4 291.5 19.5 291.7 18.8C292 18.1 292.4 17.5 292.9 16.9C293.5 16.4 294.1 16 294.9 15.7C295.6 15.4 296.5 15.3 297.4 15.3H298.7ZM297.4 19C296.7 19 296.2 19.2 295.7 19.7C295.2 20.1 295 20.7 295 21.4V25.6C295 26.3 295.2 26.9 295.7 27.3C296.2 27.8 296.7 28 297.4 28H298.7C299.4 28 300 27.8 300.4 27.3C300.8 26.9 301.1 26.3 301.1 25.6V21.4C301.1 20.7 300.8 20.1 300.4 19.7C300 19.2 299.4 19 298.7 19H297.4Z" fill="white"/>
    <path d="M323.7 19C323.2 19 322.7 19 322.4 19.2C322 19.3 321.8 19.5 321.6 19.7C321.4 20 321.3 20.3 321.2 20.6C321.1 20.9 321.1 21.3 321.1 21.7V31.7H317.3V21.7C317.3 21.3 317.3 20.9 317.2 20.6C317.2 20.3 317 20 316.9 19.7C316.7 19.5 316.4 19.3 316.1 19.2C315.7 19 315.3 19 314.7 19H313.9C313.4 19 312.9 19 312.5 19.2C312.2 19.3 311.9 19.5 311.7 19.7C311.5 20 311.4 20.3 311.3 20.6C311.2 20.9 311.2 21.3 311.2 21.7V31.7H307.4V15.3H311.2V15.8C312 15.5 312.9 15.3 313.9 15.3H315.3C316.2 15.3 316.9 15.4 317.6 15.7C318.3 15.9 318.8 16.3 319.3 16.7C319.8 16.3 320.4 15.9 321.1 15.7C321.8 15.4 322.6 15.3 323.4 15.3H325.1C326.1 15.3 326.9 15.5 327.6 15.8C328.4 16.1 329 16.5 329.4 17.1C329.9 17.6 330.3 18.2 330.5 18.9C330.8 19.5 330.9 20.2 330.9 20.9V31.7H327.2V21.7C327.2 21.3 327.2 20.9 327.1 20.6C327 20.3 326.9 20 326.7 19.7C326.5 19.5 326.2 19.3 325.9 19.2C325.6 19 325.1 19 324.5 19H323.7Z" fill="white"/>
    <path d="M159.9 1.8H49.2V43.7H159.9V1.8Z" fill="#B25C59" stroke="white" stroke-width="1.7" stroke-linecap="round" stroke-linejoin="round"/>
    <path d="M63.5 34.1V30.4H67.4V34.1H63.5Z" fill="white"/>
    <path d="M76.7 16.9C77.7 16.9 78.5 17.1 79.2 17.4C80 17.7 80.6 18.1 81.2 18.6C81.7 19.1 82.1 19.7 82.4 20.4C82.7 21.2 82.8 22 82.8 22.9V27.4C82.8 28.3 82.7 29.1 82.4 29.8C82.1 30.6 81.7 31.2 81.2 31.7C80.6 32.3 80 32.7 79.2 32.9C78.5 33.2 77.7 33.4 76.7 33.4H75.4C74.5 33.4 73.6 33.2 72.9 32.9C72.1 32.7 71.5 32.3 70.9 31.7C70.4 31.2 70 30.6 69.8 29.8C69.5 29.1 69.4 28.3 69.4 27.4V22.9C69.4 22 69.5 21.2 69.8 20.4C70 19.7 70.4 19.1 70.9 18.6C71.5 18.1 72.1 17.7 72.9 17.4C73.6 17.1 74.5 16.9 75.4 16.9H76.7ZM75.4 20.6C74.7 20.6 74.2 20.9 73.7 21.3C73.2 21.7 73 22.3 73 23V27.2C73 27.9 73.2 28.5 73.7 29C74.2 29.4 74.7 29.6 75.4 29.6H76.7C77.4 29.6 78 29.4 78.4 29C78.9 28.5 79.1 27.9 79.1 27.2V23C79.1 22.3 78.9 21.7 78.4 21.3C78 20.9 77.4 20.6 76.7 20.6H75.4Z" fill="white"/>
    <path d="M91.9 20.6C91.4 20.6 90.9 20.7 90.5 20.8C90.2 21 89.9 21.1 89.7 21.4C89.5 21.6 89.4 21.9 89.3 22.3C89.2 22.6 89.2 22.9 89.2 23.3V33.4H85.4V16.9H89.2V17.3C90 17.1 90.8 16.9 91.6 16.9H93.3C94.3 16.9 95.1 17.1 95.8 17.4C96.6 17.7 97.2 18.2 97.6 18.7C98.1 19.2 98.5 19.8 98.7 20.5C99 21.2 99.1 21.9 99.1 22.5V33.4H95.3V23.3C95.3 22.9 95.3 22.6 95.3 22.3C95.2 21.9 95.1 21.6 94.9 21.4C94.7 21.1 94.4 21 94.1 20.8C93.7 20.7 93.3 20.6 92.7 20.6H91.9Z" fill="white"/>
    <path d="M101.7 11.4H105.5V33.4H101.7V11.4Z" fill="white"/>
    <path d="M112.4 33.4H108.6V16.9H112.4V33.4ZM112.4 15.1H108.6V11.4H112.4V15.1Z" fill="white"/>
    <path d="M121.9 20.6C121.3 20.6 120.9 20.7 120.5 20.8C120.2 21 119.9 21.1 119.7 21.4C119.5 21.6 119.4 21.9 119.3 22.3C119.2 22.6 119.2 22.9 119.2 23.3V33.4H115.4V16.9H119.2V17.3C119.9 17.1 120.7 16.9 121.6 16.9H123.3C124.2 16.9 125.1 17.1 125.8 17.4C126.5 17.7 127.1 18.2 127.6 18.7C128.1 19.2 128.5 19.8 128.7 20.5C129 21.2 129.1 21.9 129.1 22.5V33.4H125.3V23.3C125.3 22.9 125.3 22.6 125.2 22.3C125.1 21.9 125 21.6 124.8 21.4C124.7 21.1 124.4 21 124.1 20.8C123.7 20.7 123.2 20.6 122.7 20.6H121.9Z" fill="white"/>
    <path d="M131.2 22.8C131.2 22 131.3 21.2 131.6 20.5C131.9 19.8 132.3 19.2 132.8 18.7C133.3 18.1 133.9 17.7 134.5 17.4C135.2 17.1 135.8 16.9 136.4 16.9H140.1C141 16.9 141.7 17.1 142.4 17.5C143 17.8 143.6 18.3 144 18.8C144.5 19.4 144.8 20 145 20.7C145.3 21.3 145.4 22 145.4 22.6V26.8H135V27.7C135 28.5 135.2 29 135.6 29.3C136 29.6 136.6 29.8 137.3 29.8H144.8V33.4H136.5C135.7 33.4 135.1 33.3 134.4 33C133.8 32.7 133.2 32.3 132.7 31.8C132.2 31.3 131.9 30.7 131.6 30C131.3 29.3 131.2 28.6 131.2 27.8V22.8ZM135 23.7H141.7V23.6C141.7 22.7 141.5 22 141 21.5C140.6 20.9 140 20.7 139.3 20.7H137.3C136.9 20.7 136.6 20.8 136.4 20.9C136.1 21.1 135.8 21.3 135.6 21.5C135.4 21.8 135.3 22.1 135.2 22.5C135 22.8 135 23.2 135 23.6V23.7Z" fill="white"/>
    <path d="M256.6 1.7H160.8V43.7H256.6V1.7Z" fill="#B25C59" stroke="white" stroke-width="1.5" stroke-linecap="round" stroke-linejoin="round"/>
    <path d="M175.1 31.7V28H179V31.7H175.1Z" fill="white"/>
    <path d="M192.8 17.7H186.4C186.1 17.7 185.8 17.7 185.7 17.8C185.5 17.9 185.3 18.1 185.2 18.2C185.1 18.4 185 18.6 184.9 18.8C184.8 19 184.8 19.2 184.8 19.4C184.8 19.8 184.9 20.2 185.2 20.5C185.5 20.8 185.8 21 186.2 21H189.8C190.6 21 191.2 21.1 191.8 21.4C192.4 21.7 192.8 22 193.2 22.5C193.6 22.9 193.9 23.5 194 24.1C194.2 24.7 194.3 25.4 194.3 26.1V26.2C194.3 26.9 194.2 27.5 194 28.1C193.8 28.7 193.5 29.2 193 29.6C192.6 30 192.2 30.3 191.6 30.6C191 30.8 190.4 30.9 189.8 30.9H182V27.7H188.7C189.2 27.7 189.7 27.6 190.1 27.3C190.5 27 190.7 26.6 190.8 26V26.1C190.8 25.8 190.7 25.5 190.6 25.3C190.5 25.1 190.3 24.9 190.1 24.8C189.9 24.6 189.7 24.5 189.5 24.4C189.2 24.4 189 24.3 188.7 24.3H185.8C184.9 24.3 184.1 24.2 183.5 23.9C182.9 23.6 182.4 23.2 182 22.7C181.7 22.2 181.4 21.7 181.3 21.1C181.2 20.5 181.1 19.9 181.1 19.3C181.1 18.6 181.2 18 181.4 17.4C181.6 16.8 181.9 16.3 182.2 15.8C182.6 15.3 183.1 15 183.6 14.7C184.2 14.5 184.8 14.3 185.6 14.3H192.8L192.8 17.7Z" fill="white"/>
    <path d="M203.1 18.2C202.6 18.2 202.1 18.2 201.7 18.4C201.4 18.5 201.1 18.7 200.9 18.9C200.7 19.2 200.6 19.5 200.5 19.8C200.4 20.1 200.4 20.5 200.4 20.9V30.9H196.8V8.9H200.4V14.8C200.7 14.7 201.1 14.6 201.4 14.6C201.8 14.5 202.2 14.5 202.6 14.5H204.5C205.4 14.5 206.3 14.6 207 15C207.7 15.3 208.3 15.7 208.8 16.3C209.3 16.8 209.7 17.4 209.9 18.1C210.1 18.7 210.2 19.4 210.2 20.1V30.9H206.6V20.9C206.6 20.5 206.6 20.1 206.5 19.8C206.4 19.5 206.3 19.2 206.1 18.9C205.9 18.7 205.6 18.5 205.3 18.4C204.9 18.2 204.5 18.2 203.9 18.2H203.1Z" fill="white"/>
    <path d="M219.6 14.5C220.6 14.5 221.4 14.6 222.2 14.9C222.9 15.2 223.6 15.6 224.1 16.1C224.6 16.6 225 17.3 225.3 18C225.6 18.7 225.7 19.6 225.7 20.5V24.9C225.7 25.8 225.6 26.6 225.3 27.4C225 28.1 224.6 28.8 224.1 29.3C223.6 29.8 222.9 30.2 222.2 30.5C221.4 30.8 220.6 30.9 219.6 30.9H218.3C217.4 30.9 216.6 30.8 215.8 30.5C215.1 30.2 214.4 29.8 213.9 29.3C213.4 28.8 213 28.1 212.7 27.4C212.4 26.6 212.3 25.8 212.3 24.9V20.5C212.3 19.6 212.4 18.7 212.7 18C213 17.3 213.4 16.6 213.9 16.1C214.4 15.6 215.1 15.2 215.8 14.9C216.6 14.6 217.4 14.5 218.3 14.5H219.6ZM218.3 18.2C217.7 18.2 217.1 18.4 216.6 18.9C216.2 19.3 215.9 19.9 215.9 20.6V24.8C215.9 25.5 216.2 26.1 216.6 26.5C217.1 27 217.7 27.2 218.3 27.2H219.6C220.3 27.2 220.9 27 221.3 26.5C221.8 26.1 222 25.5 222 24.8V20.6C222 19.9 221.8 19.3 221.3 18.9C220.9 18.4 220.3 18.2 219.6 18.2H218.3Z" fill="white"/>
    <path d="M235.2 14.5C236.1 14.5 237 14.6 237.7 14.9C238.5 15.2 239.1 15.6 239.6 16.1C240.2 16.6 240.6 17.3 240.9 18C241.1 18.7 241.3 19.6 241.3 20.5V24.9C241.3 25.8 241.1 26.6 240.9 27.4C240.6 28.1 240.2 28.8 239.6 29.3C239.1 29.8 238.5 30.2 237.7 30.5C237 30.8 236.1 30.9 235.2 30.9H234.2C233.2 30.9 232.4 30.8 231.6 30.5V36.5H227.8V14.5H235.2ZM231.6 18.2V24.8C231.6 25.5 231.8 26.1 232.2 26.5C232.7 27 233.2 27.2 233.9 27.2H235.2C235.9 27.2 236.5 27 236.9 26.5C237.4 26.1 237.6 25.5 237.6 24.8V20.6C237.6 19.9 237.4 19.3 236.9 18.9C236.5 18.4 235.9 18.2 235.2 18.2H231.6Z" fill="white"/>
    <path d="M201.3 44.6H121.6V86.7H201.3V44.6Z" fill="#B25C59" stroke="white" stroke-width="1.4" stroke-linecap="round" stroke-linejoin="round"/>
    <path d="M136 73V69.3H139.8V73H136Z" fill="white"/>
    <path d="M149.2 55.8C150.1 55.8 151 56 151.7 56.3C152.5 56.6 153.1 57 153.6 57.5C154.1 58 154.6 58.6 154.8 59.4C155.1 60.1 155.2 60.9 155.2 61.8V66.3C155.2 67.2 155.1 68 154.8 68.8C154.6 69.5 154.1 70.1 153.6 70.7C153.1 71.2 152.5 71.6 151.7 71.9C151 72.1 150.1 72.3 149.2 72.3H147.9C146.9 72.3 146.1 72.1 145.3 71.9C144.6 71.6 143.9 71.2 143.4 70.7C142.9 70.1 142.5 69.5 142.2 68.8C141.9 68 141.8 67.2 141.8 66.3V61.8C141.8 60.9 141.9 60.1 142.2 59.4C142.5 58.6 142.9 58 143.4 57.5C143.9 57 144.6 56.6 145.3 56.3C146.1 56 146.9 55.8 147.9 55.8H149.2ZM147.9 59.5C147.2 59.5 146.6 59.8 146.1 60.2C145.7 60.7 145.5 61.2 145.5 61.9V66.1C145.5 66.8 145.7 67.4 146.1 67.9C146.6 68.3 147.2 68.6 147.9 68.6H149.2C149.9 68.6 150.4 68.3 150.9 67.9C151.3 67.4 151.5 66.8 151.5 66.1V61.9C151.5 61.2 151.3 60.7 150.9 60.2C150.4 59.8 149.9 59.5 149.2 59.5H147.9Z" fill="white"/>
    <path d="M161.7 59.2C162 58.7 162.4 58.3 162.9 57.9C163.4 57.5 164 57.2 164.6 56.9C165.2 56.7 165.8 56.5 166.5 56.4C167.2 56.2 167.9 56.2 168.6 56.2H169V60.2H168.6C167.8 60.2 167 60.3 166.2 60.6C165.4 60.9 164.6 61.4 164 61.9C163.3 62.4 162.7 62.9 162.3 63.6C161.9 64.2 161.7 64.8 161.7 65.4V72.3H157.7V55.7H161.7V59.2Z" fill="white"/>
    <path d="M184.6 55.8V72.3C184.6 73.2 184.5 74 184.2 74.6C184 75.3 183.6 75.9 183.2 76.4C182.7 76.9 182.2 77.2 181.5 77.5C180.9 77.7 180.2 77.9 179.4 77.9H172V74.3H178.8C179.4 74.3 180 74.1 180.4 73.7C180.9 73.3 181.1 72.7 181.1 71.9V71.8H176.3C175.6 71.8 174.9 71.6 174.3 71.4C173.6 71.1 173.1 70.8 172.6 70.3C172.1 69.8 171.8 69.2 171.5 68.5C171.2 67.7 171.1 66.9 171.1 65.9V61.6C171.1 60.7 171.2 59.9 171.5 59.2C171.8 58.4 172.1 57.8 172.6 57.3C173.1 56.8 173.6 56.5 174.3 56.2C174.9 56 175.6 55.8 176.3 55.8L184.6 55.8ZM181.1 59.4H177.1C176.8 59.4 176.5 59.5 176.2 59.6C175.9 59.8 175.7 60 175.4 60.2C175.2 60.5 175.1 60.7 174.9 61C174.8 61.3 174.7 61.7 174.7 62V65.5C174.7 65.9 174.8 66.2 174.9 66.6C175.1 66.9 175.2 67.2 175.4 67.4C175.7 67.6 175.9 67.8 176.2 68C176.5 68.1 176.8 68.2 177.1 68.2H181.1V59.4Z" fill="white"/>
    <path d="M120.8 44.6H41.2V86.7H120.8V44.6Z" fill="#B25C59" stroke="white" stroke-width="1.4" stroke-linecap="round" stroke-linejoin="round"/>
    <path d="M55.5 77V73.3H59.4V77H55.5Z" fill="white"/>
    <path d="M68.5 63.5C68 63.5 67.5 63.6 67.1 63.7C66.8 63.9 66.5 64 66.3 64.3C66.1 64.5 66 64.8 65.9 65.2C65.8 65.5 65.8 65.8 65.8 66.2V76.3H62V59.8H65.8V60.2C66.6 60 67.4 59.8 68.2 59.8H69.9C70.9 59.8 71.7 60 72.4 60.3C73.2 60.6 73.8 61.1 74.2 61.6C74.7 62.1 75.1 62.7 75.3 63.4C75.6 64.1 75.7 64.8 75.7 65.4V76.3H72V66.2C72 65.8 71.9 65.5 71.9 65.2C71.8 64.8 71.7 64.5 71.5 64.3C71.3 64 71 63.9 70.7 63.7C70.3 63.6 69.9 63.5 69.3 63.5H68.5Z" fill="white"/>
    <path d="M77.8 65.7C77.8 64.9 77.9 64.1 78.2 63.4C78.5 62.7 78.9 62.1 79.4 61.6C79.9 61 80.5 60.6 81.2 60.3C81.8 60 82.4 59.8 83.1 59.8H86.8C87.6 59.8 88.4 60 89 60.4C89.7 60.7 90.2 61.2 90.6 61.7C91.1 62.3 91.4 62.9 91.7 63.6C91.9 64.2 92.1 64.9 92.1 65.5V69.7H81.6V70.6C81.6 71.4 81.8 71.9 82.2 72.2C82.7 72.5 83.3 72.7 84 72.7H91.5V76.3H83.1C82.4 76.3 81.7 76.2 81.1 75.9C80.4 75.6 79.8 75.2 79.3 74.7C78.9 74.2 78.5 73.6 78.2 72.9C77.9 72.2 77.8 71.5 77.8 70.7V65.7ZM81.6 66.6H88.3V66.5C88.3 65.6 88.1 64.9 87.7 64.4C87.2 63.9 86.7 63.6 85.9 63.6H83.9C83.6 63.6 83.3 63.7 83 63.8C82.7 64 82.5 64.2 82.3 64.4C82.1 64.7 81.9 65 81.8 65.4C81.7 65.7 81.6 66.1 81.6 66.5V66.6Z" fill="white"/>
    <path d="M93.7 59.8H96.7V54.3H100.5V59.8H103.6V63.5H100.5V76.3H96.7V63.5H93.7V59.8Z" fill="white"/>
    <path d="M352.3 44.7H202.2V86.5H352.3V44.7Z" fill="#B25C59" stroke="white" stroke-width="1.9" stroke-linecap="round" stroke-linejoin="round"/>
    <path d="M216.4 77V73.3H220.3V77H216.4Z" fill="white"/>
    <path d="M229.8 59.8C230.7 59.8 231.6 60 232.3 60.3C233.1 60.6 233.7 61 234.2 61.5C234.8 62 235.2 62.6 235.4 63.3C235.7 64.1 235.9 64.9 235.9 65.8V70.3C235.9 71.2 235.7 72 235.4 72.7C235.2 73.5 234.8 74.1 234.2 74.6C233.7 75.2 233.1 75.6 232.3 75.8C231.6 76.1 230.7 76.3 229.8 76.3H228.5C227.6 76.3 226.7 76.1 226 75.8C225.2 75.6 224.6 75.2 224 74.6C223.5 74.1 223.1 73.5 222.9 72.7C222.6 72 222.4 71.2 222.4 70.3V65.8V65.6V54.3H226.2V60.2C227 60 227.9 59.8 228.8 59.8H229.8ZM228.5 63.5C227.8 63.5 227.3 63.8 226.9 64.2C226.5 64.6 226.3 65.2 226.2 65.8V70.1C226.2 70.8 226.4 71.4 226.9 71.9C227.3 72.3 227.8 72.5 228.5 72.5H229.8C230.5 72.5 231 72.3 231.5 71.9C231.9 71.4 232.1 70.8 232.1 70.1V65.9C232.1 65.2 231.9 64.6 231.5 64.2C231 63.8 230.5 63.5 229.8 63.5H228.5Z" fill="white"/>
    <path d="M245.5 72.6C246.1 72.6 246.5 72.5 246.8 72.4C247.2 72.3 247.4 72.1 247.6 71.9C247.8 71.7 248 71.4 248.1 71.1C248.2 70.8 248.2 70.5 248.2 70.1V59.8H252V76.3H248.2V75.8C247.9 76 247.5 76.1 247.1 76.2C246.7 76.2 246.3 76.3 245.8 76.3H244.2C243.2 76.3 242.4 76.1 241.6 75.8C240.9 75.5 240.3 75 239.8 74.5C239.4 74 239 73.4 238.8 72.7C238.5 72 238.4 71.3 238.4 70.6V59.8H242.1V69.9C242.1 70.3 242.2 70.6 242.2 70.9C242.3 71.3 242.4 71.5 242.6 71.8C242.8 72 243.1 72.2 243.4 72.4C243.8 72.5 244.2 72.6 244.8 72.6H245.5Z" fill="white"/>
    <path d="M265.9 63H259.5C259.2 63 259 63.1 258.8 63.2C258.6 63.3 258.5 63.4 258.3 63.6C258.2 63.7 258.1 63.9 258 64.2C258 64.3 257.9 64.5 257.9 64.7C257.9 65.1 258.1 65.5 258.3 65.9C258.6 66.2 258.9 66.3 259.3 66.3H262.9C263.7 66.3 264.4 66.5 264.9 66.7C265.5 67 266 67.4 266.3 67.8C266.7 68.3 267 68.8 267.2 69.4C267.4 70 267.5 70.7 267.5 71.4V71.5C267.5 72.2 267.3 72.9 267.1 73.5C266.9 74 266.6 74.5 266.2 74.9C265.8 75.3 265.3 75.7 264.7 75.9C264.2 76.1 263.6 76.3 262.9 76.3H255.1V73.1H261.8C262.3 73.1 262.8 72.9 263.2 72.6C263.6 72.4 263.9 71.9 263.9 71.4V71.4C263.9 71.1 263.8 70.8 263.7 70.6C263.6 70.4 263.4 70.2 263.2 70.1C263 69.9 262.8 69.8 262.6 69.8C262.3 69.7 262.1 69.7 261.8 69.7H258.9C258 69.7 257.2 69.5 256.6 69.2C256 68.9 255.5 68.5 255.1 68.1C254.8 67.6 254.5 67 254.4 66.4C254.3 65.8 254.2 65.2 254.2 64.6C254.2 64 254.3 63.3 254.5 62.7C254.7 62.1 255 61.6 255.4 61.1C255.7 60.7 256.2 60.3 256.8 60.1C257.3 59.8 258 59.7 258.7 59.7H265.9L265.9 63Z" fill="white"/>
    <path d="M273.7 76.3H269.9V59.8H273.7V76.3ZM273.7 58H269.9V54.3H273.7V58Z" fill="white"/>
    <path d="M283.2 63.5C282.7 63.5 282.2 63.6 281.9 63.7C281.5 63.9 281.2 64 281 64.3C280.9 64.5 280.7 64.8 280.6 65.2C280.6 65.5 280.5 65.8 280.5 66.2V76.3H276.8V59.8H280.5V60.2C281.3 60 282.1 59.8 283 59.8H284.6C285.6 59.8 286.4 60 287.2 60.3C287.9 60.6 288.5 61.1 289 61.6C289.5 62.1 289.8 62.7 290.1 63.4C290.3 64.1 290.4 64.8 290.4 65.4V76.3H286.7V66.2C286.7 65.8 286.6 65.5 286.6 65.2C286.5 64.8 286.4 64.5 286.2 64.3C286 64 285.8 63.9 285.4 63.7C285.1 63.6 284.6 63.5 284 63.5H283.2Z" fill="white"/>
    <path d="M292.5 65.7C292.5 64.9 292.7 64.1 293 63.4C293.3 62.7 293.7 62.1 294.2 61.6C294.6 61 295.2 60.6 295.9 60.3C296.5 60 297.2 59.8 297.8 59.8H301.5C302.3 59.8 303.1 60 303.7 60.4C304.4 60.7 304.9 61.2 305.4 61.7C305.8 62.3 306.2 62.9 306.4 63.6C306.7 64.2 306.8 64.9 306.8 65.5V69.7H296.3V70.6C296.3 71.4 296.5 71.9 297 72.2C297.4 72.5 298 72.7 298.7 72.7H306.2V76.3H297.8C297.1 76.3 296.4 76.2 295.8 75.9C295.1 75.6 294.6 75.2 294.1 74.7C293.6 74.2 293.2 73.6 292.9 72.9C292.6 72.2 292.5 71.5 292.5 70.7V65.7ZM296.4 66.6H303V66.5C303 65.6 302.8 64.9 302.4 64.4C302 63.9 301.4 63.6 300.6 63.6H298.6C298.3 63.6 298 63.7 297.7 63.8C297.4 64 297.2 64.2 297 64.4C296.8 64.7 296.6 65 296.5 65.4C296.4 65.7 296.4 66.1 296.4 66.5V66.6Z" fill="white"/>
    <path d="M320.5 63H314.1C313.8 63 313.6 63.1 313.4 63.2C313.2 63.3 313.1 63.4 312.9 63.6C312.8 63.7 312.7 63.9 312.7 64.2C312.6 64.3 312.6 64.5 312.6 64.7C312.6 65.1 312.7 65.5 312.9 65.9C313.2 66.2 313.6 66.3 313.9 66.3H317.6C318.3 66.3 319 66.5 319.5 66.7C320.1 67 320.6 67.4 321 67.8C321.3 68.3 321.6 68.8 321.8 69.4C322 70 322.1 70.7 322.1 71.4V71.5C322.1 72.2 322 72.9 321.7 73.5C321.5 74 321.2 74.5 320.8 74.9C320.4 75.3 319.9 75.7 319.3 75.9C318.8 76.1 318.2 76.3 317.6 76.3H309.7V73.1H316.5C317 73.1 317.4 72.9 317.8 72.6C318.3 72.4 318.5 71.9 318.5 71.4V71.4C318.5 71.1 318.4 70.8 318.3 70.6C318.2 70.4 318 70.2 317.9 70.1C317.7 69.9 317.4 69.8 317.2 69.8C317 69.7 316.7 69.7 316.5 69.7H313.6C312.6 69.7 311.8 69.5 311.2 69.2C310.6 68.9 310.1 68.5 309.7 68.1C309.4 67.6 309.2 67 309 66.4C308.9 65.8 308.8 65.2 308.8 64.6C308.8 64 308.9 63.3 309.1 62.7C309.3 62.1 309.6 61.6 310 61.1C310.4 60.7 310.8 60.3 311.4 60.1C312 59.8 312.6 59.7 313.3 59.7H320.5L320.5 63Z" fill="white"/>
    <path d="M335.9 63H329.4C329.2 63 328.9 63.1 328.7 63.2C328.6 63.3 328.4 63.4 328.3 63.6C328.1 63.7 328 63.9 328 64.2C327.9 64.3 327.9 64.5 327.9 64.7C327.9 65.1 328 65.5 328.3 65.9C328.6 66.2 328.9 66.3 329.3 66.3H332.9C333.6 66.3 334.3 66.5 334.9 66.7C335.4 67 335.9 67.4 336.3 67.8C336.7 68.3 336.9 68.8 337.1 69.4C337.3 70 337.4 70.7 337.4 71.4V71.5C337.4 72.2 337.3 72.9 337.1 73.5C336.8 74 336.5 74.5 336.1 74.9C335.7 75.3 335.2 75.7 334.7 75.9C334.1 76.1 333.5 76.3 332.9 76.3H325.1V73.1H331.8C332.3 73.1 332.7 72.9 333.1 72.6C333.6 72.4 333.8 71.9 333.8 71.4V71.4C333.8 71.1 333.8 70.8 333.6 70.6C333.5 70.4 333.4 70.2 333.2 70.1C333 69.9 332.8 69.8 332.5 69.8C332.3 69.7 332.1 69.7 331.8 69.7H328.9C327.9 69.7 327.2 69.5 326.5 69.2C325.9 68.9 325.4 68.5 325.1 68.1C324.7 67.6 324.5 67 324.4 66.4C324.2 65.8 324.2 65.2 324.2 64.6C324.2 64 324.3 63.3 324.5 62.7C324.7 62.1 324.9 61.6 325.3 61.1C325.7 60.7 326.2 60.3 326.7 60.1C327.3 59.8 327.9 59.7 328.6 59.7H335.9L335.9 63Z" fill="white"/>
    <path d="M380.1 54.7C380.9 54 381.8 53.3 382.7 52.7C383.7 52.1 384.6 51.7 385.6 51.4C386.6 51.2 387.6 51.2 388.6 51.4C389.6 51.6 390.6 52.2 391.5 53.2L396 58.3C396.8 59.1 397.2 59.9 397.4 60.9C397.7 61.8 397.7 62.7 397.5 63.5C397.4 64.4 397.1 65.2 396.6 66C396.2 66.8 395.7 67.6 395.1 68.2C394.5 68.9 393.8 69.4 393.1 69.8C392.4 70.3 391.7 70.6 391 70.8L379.9 73.4L376.6 76.3L372.8 72.1L376.6 68.8L386.8 66.6C387.3 66.5 388 66.2 388.6 65.8C389.3 65.3 389.8 64.8 390.3 64.3C390.8 63.7 391.1 63.1 391.2 62.4C391.4 61.8 391.2 61.3 390.8 60.8L388.6 58.4C388.3 58 387.9 57.7 387.5 57.6C387.1 57.4 386.8 57.4 386.3 57.4C386 57.5 385.6 57.7 385.2 57.9C384.8 58.2 384.4 58.5 383.9 58.9L380.1 54.7ZM370 82.4L366.1 78.1L370.4 74.3L374.2 78.6L370 82.4Z" fill="#B25C59"/>
    <path d="M7.1 69.5C6.3 68.8 5.7 68 5 67.1C4.4 66.2 3.9 65.3 3.6 64.4C3.3 63.4 3.2 62.5 3.4 61.5C3.5 60.5 4 59.6 4.9 58.7L9.6 53.9C10.3 53.2 11.1 52.7 12 52.5C12.9 52.2 13.7 52.1 14.5 52.2C15.4 52.3 16.2 52.5 17 52.9C17.8 53.3 18.6 53.7 19.2 54.3C19.9 54.8 20.5 55.4 20.9 56.1C21.4 56.7 21.7 57.4 21.9 58L25.1 68.6L28.1 71.6L24.3 75.5L20.9 72.1L18.2 62.4C18 61.8 17.7 61.3 17.3 60.7C16.8 60 16.3 59.5 15.7 59.1C15.1 58.7 14.5 58.4 13.9 58.3C13.3 58.2 12.8 58.4 12.3 58.9L10.1 61.1C9.8 61.5 9.5 61.8 9.4 62.2C9.3 62.6 9.3 63 9.3 63.4C9.4 63.7 9.6 64.1 9.9 64.5C10.2 64.8 10.5 65.2 10.9 65.6L7.1 69.5ZM34.4 77.7L30.5 81.6L26.5 77.7L30.5 73.8L34.4 77.7Z" fill="#B25C59"/>
</svg>