<svg viewBox="0 0 202 99" fill="none" xmlns="http://www.w3.org/2000/svg">
    <path d="M201.1 1.1H1.1V97.8H201.1V1.1Z" fill="#C0DD6C" stroke="#1A1A1A" stroke-width="1.5" stroke-linecap="round" stroke-linejoin="round"/>
    <path d="M29 75.6V67.1H37.8V75.6H29Z" fill="#1A1A1A"/>
    <path d="M59.7 36.1C61.9 36.1 63.8 36.5 65.5 37.1C67.3 37.8 68.7 38.7 69.9 39.9C71.1 41.1 72.1 42.5 72.7 44.2C73.4 45.9 73.7 47.8 73.7 49.9V60.1C73.7 62.2 73.4 64.1 72.7 65.8C72.1 67.5 71.1 69 69.9 70.2C68.7 71.4 67.3 72.3 65.5 72.9C63.8 73.6 61.9 73.9 59.7 73.9H56.8C54.6 73.9 52.6 73.6 50.9 72.9C49.2 72.3 47.7 71.4 46.5 70.2C45.3 69 44.4 67.5 43.8 65.8C43.1 64.1 42.8 62.2 42.8 60.1V49.9V49.3V23.3H51.6V37.1C53.4 36.4 55.3 36.1 57.4 36.1H59.7ZM56.8 44.7C55.2 44.7 53.9 45.1 53 46.1C52.1 47.1 51.6 48.4 51.6 49.9V59.8C51.6 61.4 52 62.8 53 63.8C53.9 64.9 55.2 65.4 56.8 65.4H59.7C61.3 65.4 62.6 64.9 63.6 63.8C64.6 62.8 65.1 61.4 65.1 59.8V50.1C65.1 48.5 64.6 47.2 63.6 46.2C62.6 45.2 61.3 44.7 59.7 44.7H56.8Z" fill="#1A1A1A"/>
    <path d="M78.8 49.6C78.8 47.7 79.1 46 79.8 44.4C80.5 42.8 81.4 41.4 82.6 40.1C83.7 38.9 85 37.9 86.5 37.2C88 36.5 89.5 36.1 90.9 36.1H99.4C101.3 36.1 103.1 36.5 104.5 37.4C106.1 38.2 107.3 39.2 108.3 40.5C109.4 41.7 110.2 43.1 110.7 44.7C111.3 46.3 111.6 47.8 111.6 49.3V58.8H87.5V60.8C87.5 62.6 88 63.9 89 64.6C90 65.4 91.3 65.7 92.9 65.7H110.3V74.1H91C89.3 74.1 87.8 73.7 86.3 73.1C84.8 72.4 83.5 71.5 82.3 70.3C81.2 69.2 80.4 67.8 79.7 66.3C79.1 64.7 78.8 62.9 78.8 61.1V49.6ZM87.6 51.8H103V51.4C103 49.5 102.5 47.9 101.5 46.7C100.5 45.4 99.2 44.7 97.5 44.7H92.9C92.1 44.7 91.4 44.9 90.7 45.3C90.1 45.7 89.5 46.1 89.1 46.7C88.6 47.3 88.3 48 88 48.9C87.7 49.7 87.6 50.5 87.6 51.4V51.8Z" fill="#1A1A1A"/>
    <path d="M143.2 43.5H128.4C127.8 43.5 127.3 43.6 126.8 43.8C126.4 44 126.1 44.3 125.8 44.7C125.5 45.1 125.2 45.6 125.1 46.1C124.9 46.5 124.9 47 124.9 47.4C124.9 48.3 125.2 49.2 125.8 50C126.4 50.7 127.2 51.1 128.1 51.1H136.4C138.1 51.1 139.6 51.4 140.9 52C142.3 52.6 143.3 53.4 144.2 54.5C145.1 55.5 145.7 56.7 146.1 58.2C146.6 59.6 146.8 61.1 146.8 62.8V63C146.8 64.6 146.5 66.1 146 67.5C145.5 68.8 144.8 69.9 143.8 70.9C142.9 71.8 141.8 72.6 140.5 73.1C139.2 73.6 137.8 73.9 136.4 73.9H118.4V66.6H133.9C135 66.6 136 66.2 137 65.6C138 65 138.5 64 138.5 62.7V62.8C138.5 62 138.4 61.4 138.1 60.9C137.8 60.4 137.5 60 137.1 59.7C136.6 59.4 136.1 59.1 135.6 59C135 58.8 134.5 58.8 133.9 58.8H127.2C125 58.8 123.2 58.4 121.8 57.7C120.4 57 119.3 56.1 118.4 55C117.6 54 117.1 52.7 116.8 51.3C116.5 49.9 116.3 48.5 116.3 47.1C116.3 45.6 116.6 44.2 117 42.8C117.4 41.4 118.1 40.2 118.9 39.2C119.8 38.1 120.9 37.2 122.2 36.6C123.5 36 124.9 35.7 126.6 35.7H143.2L143.2 43.5Z" fill="#1A1A1A"/>
    <path d="M150.5 36.1H157.5V23.3H166.3V36.1H173.3V44.7H166.3V73.9H157.5V44.7H150.5V36.1Z" fill="#1A1A1A"/>
</svg>