<svg viewBox="0 0 302 116" fill="none" xmlns="http://www.w3.org/2000/svg">
    <path d="M0.8 20.7V105.5H85.6V20.7H0.8Z" fill="#B25C59" stroke="white" stroke-width="1.5" stroke-linecap="round" stroke-linejoin="round"/>
    <path d="M216 20.1V104.9H300.8V20.1H216Z" fill="#B25C59" stroke="white" stroke-width="1.5" stroke-linecap="round" stroke-linejoin="round"/>
    <path d="M94 1.4V114.5H207V1.4H94Z" fill="#B25C59" stroke="white" stroke-width="2" stroke-linecap="round" stroke-linejoin="round"/>
    <path d="M121.6 82.9L150.5 32.9L179.3 82.9H121.6Z" fill="white"/>
    <path d="M67.7 63.1L43.2 38.6L18.7 63.1L43.2 87.6L67.7 63.1Z" fill="white"/>
    <path d="M258.4 82.7C269.5 82.7 278.6 73.7 278.6 62.5C278.6 51.4 269.5 42.3 258.4 42.3C247.2 42.3 238.2 51.4 238.2 62.5C238.2 73.7 247.2 82.7 258.4 82.7Z" fill="white"/>
</svg>