<svg viewBox="0 0 202 202" fill="none" xmlns="http://www.w3.org/2000/svg">
    <path d="M1 1V201H201V1H1Z" fill="#C0DD6C" stroke="#1A1A1A" stroke-width="2" stroke-linecap="round" stroke-linejoin="round"/>
    <path d="M101 39.9L109.9 56L124.4 44.5L126.5 62.9L144.2 57.8L139.1 75.5L157.5 77.6L146 92.1L162.1 101L146 109.9L157.5 124.4L139.1 126.5L144.2 144.2L126.5 139.1L124.4 157.5L109.9 146L101 162.1L92.1 146L77.6 157.5L75.5 139.1L57.8 144.2L62.9 126.5L44.5 124.4L56 109.9L39.9 101L56 92.1L44.5 77.6L62.9 75.5L57.8 57.8L75.5 62.9L77.6 44.5L92.1 56L101 39.9Z" fill="#1A1A1A" stroke="#1A1A1A" stroke-linecap="round" stroke-linejoin="round"/>
</svg>