<svg viewBox="0 0 301 155" fill="none" xmlns="http://www.w3.org/2000/svg">
    <path d="M149.1 67.1L132.1 70.3L118.4 80L109.8 95.2L105.1 94.8L92.6 97.5L82.2 106.9L77.4 122.5L81.5 137.1L92 146.9L105.1 150.3H193.1L210.8 146.1L222.1 133.3L226.4 117L222.7 100.7L210.1 87.7L193.1 83.7L183.4 85.2L174.3 75.6L162.7 69.4L149.1 67.1Z" fill="#B25C59" stroke="white" stroke-width="2" stroke-linecap="round" stroke-linejoin="round"/>
    <path d="M149.2 111C150.9 111 152.4 111.3 153.8 112C155.2 112.6 156.4 113.5 157.5 114.5C158.6 115.6 159.4 116.8 160 118.3C160.6 119.7 160.9 121.2 160.9 122.9C160.9 124.5 160.6 126 160 127.5C159.4 128.9 158.5 130.1 157.4 131.2C156.4 132.3 155.2 133.1 153.8 133.8C152.4 134.4 150.9 134.7 149.2 134.7H149H147.9V138H141.6V134.7H130.6V128H141.6V117.8H140.3C138.6 117.8 137.1 117.4 135.7 116.8C134.3 116.2 133 115.3 132 114.3C130.9 113.2 130.1 112 129.4 110.5C128.8 109.1 128.5 107.6 128.5 105.9C128.5 104.3 128.8 102.8 129.4 101.4C130.1 99.9 130.9 98.7 132 97.6C133 96.6 134.3 95.7 135.7 95.1C137.1 94.4 138.6 94.1 140.3 94.1H141.6V90.8H147.9V94.1H155.7V100.9H147.9V111H149.2ZM147.9 117.8V128H149.3C150.7 127.9 151.8 127.4 152.7 126.5C153.7 125.5 154.2 124.3 154.2 122.9C154.2 122.2 154.1 121.5 153.8 120.9C153.5 120.2 153.1 119.7 152.7 119.3C152.3 118.8 151.7 118.5 151.1 118.2C150.5 117.9 149.8 117.8 149.1 117.8H147.9ZM135.3 105.9C135.3 107.3 135.7 108.5 136.7 109.5C137.6 110.5 138.8 111 140.2 111H141.6V100.9H140.4C138.9 100.9 137.7 101.3 136.7 102.3C135.8 103.3 135.3 104.5 135.3 105.9Z" fill="white"/>
    <path d="M161.3 91.9H157.3V89.6H161.3L159.4 86.1L161.4 85.1L163.2 88.4L164.9 85.1L166.9 86.1L165 89.6H169V91.9H165L166.9 95.4L164.9 96.4L163.1 93.1L161.4 96.4L159.4 95.4L161.3 91.9Z" fill="white"/>
    <path d="M240.5 95.3C241.2 93.7 242.1 92 243.1 90.4C244.2 88.8 245.4 87.4 246.8 86.3C248.2 85.1 249.8 84.4 251.5 84.1C253.2 83.6 255.1 83.9 257.2 84.8L268.1 89.6C269.8 90.4 271.1 91.4 272.1 92.7C273.1 94 273.8 95.3 274.2 96.8C274.6 98.3 274.7 99.8 274.6 101.4C274.5 103 274.1 104.5 273.6 106C273.2 107.4 272.5 108.8 271.7 109.9C270.9 111.1 270.1 112.1 269.1 112.9L253.4 124.9L250.3 131.9L241.4 128L244.9 120.1L259.5 109.4C260.3 108.8 261 107.9 261.7 106.7C262.5 105.6 263 104.4 263.3 103.2C263.7 101.9 263.7 100.7 263.5 99.6C263.3 98.6 262.6 97.8 261.5 97.3L256.5 95.1C255.6 94.7 254.8 94.5 254.1 94.6C253.4 94.6 252.8 94.8 252.2 95.2C251.6 95.6 251.2 96.1 250.7 96.9C250.3 97.6 249.9 98.4 249.5 99.3L240.5 95.3ZM244.3 146.3L235.1 142.2L239.1 133.2L248.3 137.2L244.3 146.3Z" fill="#B25C59"/>
    <path d="M33 116.1C32.5 114.6 32.2 113 31.9 111.3C31.7 109.5 31.7 107.9 32 106.3C32.3 104.8 32.9 103.4 33.9 102.1C34.8 100.8 36.2 99.9 38.2 99.3L48.4 96.2C49.9 95.7 51.4 95.6 52.9 95.9C54.3 96.2 55.6 96.7 56.6 97.5C57.8 98.2 58.8 99.2 59.6 100.4C60.5 101.5 61.2 102.7 61.6 104C62.2 105.3 62.5 106.5 62.7 107.8C62.8 109.1 62.8 110.2 62.6 111.3L59 128.6L61 135.1L52.7 137.7L50.4 130.3L54 114.6C54.2 113.7 54.2 112.7 54 111.5C53.9 110.3 53.5 109.1 53 108.1C52.5 107.1 51.9 106.2 51.1 105.7C50.3 105 49.4 104.9 48.4 105.2L43.7 106.6C42.9 106.9 42.3 107.2 41.8 107.7C41.4 108.1 41 108.6 40.9 109.2C40.7 109.8 40.7 110.5 40.8 111.2C40.9 111.9 41.1 112.7 41.4 113.6L33 116.1ZM65.3 148.4L56.8 151L54.2 142.5L62.7 139.9L65.3 148.4Z" fill="#B25C59"/>
    <path d="M281.1 116.6C281.9 115.9 282.7 115.3 283.7 114.7C284.6 114.2 285.6 113.8 286.6 113.6C287.6 113.3 288.5 113.4 289.5 113.6C290.5 113.8 291.4 114.4 292.3 115.4L296.6 120.6C297.3 121.4 297.7 122.2 297.9 123.2C298.1 124.1 298.1 124.9 298 125.8C297.8 126.6 297.5 127.4 297 128.2C296.5 129 296 129.7 295.4 130.3C294.8 131 294.1 131.5 293.4 131.9C292.7 132.3 292 132.6 291.3 132.7L280.3 135L277 137.8L273.4 133.5L277.2 130.4L287.3 128.5C287.8 128.4 288.4 128.2 289.1 127.7C289.8 127.3 290.3 126.9 290.8 126.3C291.3 125.8 291.6 125.2 291.8 124.6C291.9 123.9 291.8 123.4 291.4 122.9L289.3 120.5C289 120.1 288.6 119.8 288.2 119.6C287.9 119.5 287.5 119.4 287.1 119.5C286.7 119.5 286.3 119.7 285.9 120C285.5 120.2 285.1 120.5 284.7 120.9L281.1 116.6ZM270.3 143.6L266.7 139.3L271 135.6L274.6 140L270.3 143.6Z" fill="#B25C59"/>
    <path d="M9.3 137.2C8.4 136.5 7.5 135.8 6.6 134.9C5.7 134 5.1 133 4.5 132C4.1 131 3.8 130 3.8 128.8C3.8 127.7 4.2 126.6 5.1 125.4L9.6 119.3C10.3 118.4 11.1 117.7 12 117.2C13 116.8 13.9 116.5 14.9 116.5C15.8 116.5 16.8 116.6 17.8 116.9C18.8 117.2 19.7 117.6 20.5 118.1C21.3 118.6 22.1 119.2 22.7 119.9C23.3 120.5 23.8 121.2 24.1 121.9L29.4 133.3L33.3 136.1L29.7 141.1L25.3 137.9L20.6 127.4C20.4 126.8 19.9 126.2 19.3 125.6C18.7 125 18 124.5 17.3 124.1C16.6 123.7 15.9 123.5 15.2 123.5C14.5 123.5 13.9 123.8 13.4 124.4L11.4 127.2C11 127.7 10.8 128.2 10.7 128.6C10.6 129.1 10.7 129.5 10.8 129.9C11 130.3 11.3 130.7 11.7 131.1C12 131.4 12.5 131.8 13 132.2L9.3 137.2ZM41.4 141.9L37.7 147L32.6 143.3L36.3 138.1L41.4 141.9Z" fill="#B25C59"/>
    <path d="M58.9 29.9L48.6 31.8L40.3 37.7L35.2 46.9L32.3 46.6L24.8 48.2L18.5 53.9L15.6 63.3L18.1 72.2L24.4 78.1L32.3 80.1H85.4L96.1 77.6L103 69.8L105.5 60L103.4 50.2L95.7 42.3L85.4 39.9L79.6 40.8L74.1 35L67.1 31.2L58.9 29.9Z" fill="#B25C59" stroke="white" stroke-width="1.2" stroke-linecap="round" stroke-linejoin="round"/>
    <path d="M59 56.4C60 56.4 60.9 56.6 61.7 57C62.6 57.4 63.3 57.9 64 58.5C64.6 59.1 65.1 59.9 65.5 60.8C65.8 61.6 66 62.6 66 63.6C66 64.5 65.8 65.5 65.5 66.3C65.1 67.2 64.6 67.9 63.9 68.6C63.3 69.2 62.5 69.7 61.7 70.1C60.9 70.5 60 70.7 59 70.7H58.8H58.2V72.7H54.3V70.7H47.7V66.6H54.3V60.5H53.6C52.6 60.5 51.6 60.3 50.8 59.9C49.9 59.5 49.2 59 48.5 58.4C47.9 57.7 47.4 57 47 56.1C46.7 55.2 46.5 54.3 46.5 53.3C46.5 52.3 46.7 51.4 47 50.6C47.4 49.7 47.9 48.9 48.5 48.3C49.2 47.7 49.9 47.2 50.8 46.8C51.6 46.4 52.6 46.2 53.6 46.2H54.3V44.2H58.2V46.2H62.9V50.3H58.2V56.4H59ZM58.2 60.5V66.6H59C59.8 66.6 60.5 66.3 61.1 65.7C61.7 65.1 62 64.4 62 63.6C62 63.1 61.9 62.7 61.7 62.3C61.5 62 61.3 61.6 61.1 61.4C60.8 61.1 60.5 60.9 60.1 60.7C59.7 60.6 59.3 60.5 58.9 60.5H58.2ZM50.5 53.3C50.5 54.1 50.8 54.9 51.4 55.5C51.9 56.1 52.7 56.4 53.5 56.4H54.3V50.3H53.6C52.7 50.3 52 50.6 51.4 51.1C50.8 51.7 50.5 52.5 50.5 53.3Z" fill="white"/>
    <path d="M66.2 44.8H63.8V43.5H66.2L65.1 41.4L66.3 40.7L67.4 42.7L68.5 40.7L69.7 41.4L68.5 43.5H70.9V44.8H68.5L69.7 46.9L68.4 47.6L67.4 45.6L66.3 47.6L65.1 46.9L66.2 44.8Z" fill="white"/>
    <path d="M149 1.3L140 2.9L132.8 8.1L128.3 16L125.9 15.8L119.3 17.2L113.8 22.2L111.3 30.4L113.5 38L119 43.2L125.9 44.9H172L181.3 42.7L187.3 36L189.5 27.4L187.6 18.9L180.9 12.1L172 10L166.9 10.8L162.2 5.7L156.1 2.5L149 1.3Z" fill="#B25C59" stroke="white" stroke-width="1" stroke-linecap="round" stroke-linejoin="round"/>
    <path d="M149 24.3C149.9 24.3 150.7 24.5 151.4 24.8C152.1 25.2 152.8 25.6 153.4 26.2C153.9 26.7 154.3 27.4 154.7 28.1C155 28.9 155.2 29.7 155.2 30.6C155.2 31.4 155 32.2 154.7 33C154.3 33.7 153.9 34.3 153.3 34.9C152.8 35.5 152.1 35.9 151.4 36.3C150.7 36.6 149.9 36.7 149 36.7H148.9H148.3V38.5H145V36.8H139.2V33.2H145V27.9H144.3C143.5 27.9 142.6 27.7 141.9 27.4C141.2 27 140.5 26.6 140 26C139.4 25.5 139 24.8 138.6 24.1C138.3 23.3 138.2 22.5 138.2 21.7C138.2 20.8 138.3 20 138.6 19.3C139 18.5 139.4 17.8 140 17.3C140.5 16.7 141.2 16.3 141.9 16C142.6 15.6 143.5 15.5 144.3 15.5H145V13.7H148.3V15.5H152.4V19H148.3V24.3H149ZM148.3 27.9V33.2H149.1C149.8 33.2 150.4 32.9 150.9 32.4C151.4 31.9 151.6 31.3 151.6 30.6C151.6 30.2 151.5 29.8 151.4 29.5C151.3 29.2 151.1 28.9 150.8 28.7C150.6 28.4 150.3 28.2 150 28.1C149.7 27.9 149.3 27.9 149 27.9H148.3ZM141.7 21.7C141.7 22.4 141.9 23 142.4 23.5C142.9 24 143.5 24.3 144.3 24.3H145V19H144.4C143.6 19 143 19.2 142.5 19.8C141.9 20.3 141.7 20.9 141.7 21.7Z" fill="white"/>
    <path d="M155.3 14.3H153.3V13.1H155.3L154.4 11.3L155.4 10.7L156.3 12.4L157.3 10.7L158.3 11.3L157.3 13.1H159.4V14.3H157.3L158.3 16.1L157.3 16.7L156.3 14.9L155.4 16.7L154.4 16.1L155.3 14.3Z" fill="white"/>
    <path d="M237.7 21.3L227.5 23.2L219.2 29.1L214 38.3L211.2 38L203.6 39.6L197.3 45.3L194.4 54.7L196.9 63.6L203.3 69.5L211.2 71.5H264.3L275 69L281.8 61.2L284.4 51.4L282.2 41.6L274.5 33.7L264.3 31.3L258.4 32.2L252.9 26.4L246 22.7L237.7 21.3Z" fill="#B25C59" stroke="white" stroke-width="1.2" stroke-linecap="round" stroke-linejoin="round"/>
    <path d="M237.8 47.8C238.8 47.8 239.7 48 240.5 48.4C241.4 48.8 242.2 49.3 242.8 49.9C243.5 50.6 243.9 51.3 244.3 52.2C244.7 53 244.9 54 244.9 55C244.9 55.9 244.7 56.9 244.3 57.7C243.9 58.6 243.4 59.3 242.8 60C242.1 60.6 241.4 61.1 240.5 61.5C239.7 61.9 238.8 62.1 237.8 62.1H237.7H237V64.1H233.2V62.1H226.5V58H233.2V51.9H232.4C231.4 51.9 230.5 51.7 229.6 51.3C228.8 50.9 228 50.4 227.4 49.8C226.8 49.1 226.2 48.4 225.9 47.5C225.5 46.6 225.3 45.7 225.3 44.7C225.3 43.7 225.5 42.8 225.9 42C226.2 41.1 226.8 40.3 227.4 39.7C228 39.1 228.8 38.6 229.6 38.2C230.5 37.8 231.4 37.6 232.4 37.6H233.2V35.6H237V37.6H241.7V41.7H237V47.8H237.8ZM237 51.9V58H237.9C238.7 58 239.4 57.7 239.9 57.1C240.5 56.5 240.8 55.8 240.8 55C240.8 54.5 240.7 54.1 240.5 53.7C240.4 53.4 240.2 53 239.9 52.8C239.6 52.5 239.3 52.3 238.9 52.1C238.6 52 238.2 51.9 237.7 51.9H237ZM229.4 44.7C229.4 45.6 229.7 46.3 230.2 46.9C230.8 47.5 231.5 47.8 232.3 47.8H233.2V41.7H232.5C231.6 41.7 230.9 42 230.3 42.5C229.7 43.1 229.4 43.9 229.4 44.7Z" fill="white"/>
    <path d="M245.1 36.2H242.7V34.9H245.1L244 32.8L245.2 32.1L246.2 34.1L247.3 32.1L248.5 32.8L247.4 34.9H249.8V36.2H247.4L248.5 38.4L247.3 39L246.2 37L245.2 39L244 38.4L245.1 36.2Z" fill="white"/>
</svg>