<svg viewBox="0 0 203 115" fill="none" xmlns="http://www.w3.org/2000/svg">
    <path d="M97.6 1.5L74.8 5.8L56.4 18.9L44.8 39.3L38.6 38.8L21.8 42.4L7.8 55L1.4 76L6.9 95.6L21 108.8L38.6 113.2H156.7L180.4 107.7L195.6 90.4L201.4 68.5L196.5 46.7L179.5 29.2L156.7 23.9L143.7 25.8L131.4 12.9L115.9 4.6L97.6 1.5Z" fill="#C0DD6C" stroke="#1A1A1A" stroke-width="2" stroke-linecap="round" stroke-linejoin="round"/>
    <path d="M104.4 60.1C106.8 60.1 109 60.5 111.1 61.5C113.3 62.4 115.1 63.7 116.7 65.3C118.2 66.8 119.5 68.7 120.4 70.8C121.3 73 121.8 75.2 121.8 77.7C121.8 80.1 121.3 82.3 120.4 84.5C119.5 86.6 118.2 88.4 116.6 90C115 91.6 113.2 92.9 111.1 93.8C109 94.7 106.8 95.1 104.4 95.1H104H102.4V100.1H93V95.2H76.7V85.2H93V70.1H91.1C88.7 70.1 86.4 69.6 84.2 68.6C82.2 67.7 80.3 66.4 78.8 64.9C77.2 63.3 75.9 61.4 75 59.3C74.1 57.2 73.7 54.9 73.7 52.5C73.7 50.1 74.1 47.8 75 45.7C75.9 43.6 77.2 41.7 78.8 40.2C80.3 38.6 82.2 37.3 84.2 36.4C86.4 35.5 88.7 35 91.1 35H93V30H102.4V35H114V45H102.4V60.1H104.4ZM102.4 70.1V85.2H104.5C106.5 85.1 108.2 84.4 109.6 83C111.1 81.5 111.8 79.8 111.8 77.7C111.8 76.6 111.6 75.6 111.1 74.7C110.7 73.7 110.2 73 109.5 72.3C108.9 71.6 108.1 71.1 107.2 70.7C106.3 70.3 105.3 70.1 104.2 70.1H102.4ZM83.7 52.5C83.7 54.5 84.4 56.3 85.7 57.8C87.1 59.2 88.9 60 90.9 60.1H93V45H91.2C89.1 45 87.3 45.7 85.8 47.1C84.4 48.6 83.7 50.4 83.7 52.5V52.5Z" fill="#1A1A1A"/>
</svg>