<svg viewBox="0 10 490 385" fill="none" xmlns="http://www.w3.org/2000/svg">
    <path d="M57 15.9C54.8 15.6 52.7 17.1 52.4 19.4L46 64.2L371.9 110.5L378.3 65.6C378.6 63.4 377.1 61.3 374.8 61L57 15.9Z" fill="white" stroke="#1A1A1A" stroke-width="1.7" stroke-linecap="square" stroke-linejoin="round"/>
    <path d="M93.4 29.4L64 25.2C63.1 25.1 62.3 25.7 62.2 26.6L58 56C57.9 56.9 58.5 57.7 59.4 57.8L88.8 62C89.7 62.1 90.5 61.5 90.6 60.6L94.8 31.2C94.9 30.3 94.3 29.5 93.4 29.4Z" fill="#36343C"/>
    <path d="M343.1 73.1L330.1 71.3C329.2 71.1 328.3 71.8 328.2 72.7L326.4 85.7C326.2 86.6 326.9 87.4 327.8 87.6L340.8 89.4C341.7 89.6 342.6 88.9 342.7 88L344.5 75C344.7 74.1 344 73.2 343.1 73.1Z" fill="#36343C"/>
    <path d="M364.3 76.1L351.3 74.3C350.4 74.1 349.6 74.8 349.4 75.7L347.6 88.7C347.4 89.6 348.1 90.5 349 90.6L362 92.4C362.9 92.6 363.8 91.9 363.9 91L365.7 78C365.9 77.1 365.2 76.2 364.3 76.1Z" fill="#36343C"/>
    <path d="M321.9 70.1L308.9 68.2C308 68.1 307.1 68.7 307 69.6L305.2 82.7C305 83.6 305.7 84.4 306.6 84.6L319.6 86.4C320.5 86.5 321.3 85.9 321.5 85L323.3 72C323.5 71.1 322.8 70.2 321.9 70.1Z" fill="#36343C"/>
    <path d="M263.2 65.9L205.2 57.7C204.3 57.6 203.5 58.2 203.4 59.1L202.7 64C202.6 64.9 203.2 65.7 204.1 65.9L262 74.1C262.9 74.2 263.7 73.6 263.9 72.7L264.6 67.8C264.7 66.9 264.1 66.1 263.2 65.9Z" fill="#7C8A54"/>
    <path d="M194.7 56.2L136.8 48C135.9 47.9 135 48.5 134.9 49.4L134.2 54.3C134.1 55.2 134.7 56 135.6 56.1L193.5 64.4C194.4 64.5 195.3 63.9 195.4 63L196.1 58.1C196.2 57.2 195.6 56.3 194.7 56.2Z" fill="#7C8A54"/>
    <path d="M57 15.9C54.8 15.6 52.7 17.1 52.4 19.4L46 64.2L371.9 110.5L378.3 65.6C378.6 63.4 377.1 61.3 374.8 61L57 15.9Z" fill="white" stroke="#1A1A1A" stroke-width="2" stroke-linecap="square" stroke-linejoin="round"/>
    <path d="M93.4 29.4L64 25.2C63.1 25.1 62.3 25.7 62.2 26.6L58 56C57.9 56.9 58.5 57.7 59.4 57.8L88.8 62C89.7 62.1 90.5 61.5 90.6 60.6L94.8 31.2C94.9 30.3 94.3 29.5 93.4 29.4Z" fill="#36343C"/>
    <path d="M343.1 73.1L330.1 71.3C329.2 71.1 328.3 71.8 328.2 72.7L326.4 85.7C326.2 86.6 326.9 87.4 327.8 87.6L340.8 89.4C341.7 89.6 342.6 88.9 342.7 88L344.5 75C344.7 74.1 344 73.2 343.1 73.1Z" fill="#36343C"/>
    <path d="M364.3 76.1L351.3 74.3C350.4 74.1 349.6 74.8 349.4 75.7L347.6 88.7C347.4 89.6 348.1 90.5 349 90.6L362 92.4C362.9 92.6 363.8 91.9 363.9 91L365.7 78C365.9 77.1 365.2 76.2 364.3 76.1Z" fill="#36343C"/>
    <path d="M321.9 70.1L308.9 68.2C308 68.1 307.1 68.7 307 69.6L305.2 82.7C305 83.6 305.7 84.4 306.6 84.6L319.6 86.4C320.5 86.5 321.3 85.9 321.5 85L323.3 72C323.5 71.1 322.8 70.2 321.9 70.1Z" fill="#36343C"/>
    <path d="M263.2 65.9L205.2 57.7C204.3 57.6 203.5 58.2 203.4 59.1L202.7 64C202.6 64.9 203.2 65.7 204.1 65.9L262 74.1C262.9 74.2 263.7 73.6 263.9 72.7L264.6 67.8C264.7 66.9 264.1 66.1 263.2 65.9Z" fill="#7C8A54"/>
    <path d="M194.7 56.2L136.8 48C135.9 47.9 135 48.5 134.9 49.4L134.2 54.3C134.1 55.2 134.7 56 135.6 56.1L193.5 64.4C194.4 64.5 195.3 63.9 195.4 63L196.1 58.1C196.2 57.2 195.6 56.3 194.7 56.2Z" fill="#7C8A54"/>
    <path d="M485.7 178.2L481.4 162.9L448.4 97.1L440.1 72.7L436.7 71L432.3 60.6L412 56.4L372.2 45L367.2 47L336 42.3L326.1 42.8L311.4 43.2L308.2 48.9L310.3 51.8L357.6 58.5L341.6 82.9L345 106.8L335.9 105.5L347 112.9L375.8 150L395.9 166.7L421.8 188.8" fill="#C3E06D"/>
    <path d="M485.7 178.2L481.4 162.9L448.4 97.1L440.1 72.7L436.7 71L432.3 60.6L412 56.4L372.2 45L367.2 47L336 42.3L326.1 42.8L311.4 43.2L308.2 48.9L310.3 51.8L357.6 58.5L341.6 82.9L345 106.8L335.9 105.5L347 112.9L375.8 150L395.9 166.7L421.8 188.8" stroke="black" stroke-width="2.1" stroke-linecap="round" stroke-linejoin="round"/>
    <path d="M308.2 48.9L310.3 51.8L357.6 58.5L363.9 49.7L334.9 46.8L313.1 47.4L308.2 48.9Z" fill="#7C8A54"/>
    <path d="M345 106.8L347 112.9L335.9 105.5L345 106.8Z" fill="#1A1A1A"/>
    <path d="M409.7 62.9L402.7 67.2L370.8 71.1C369.8 72.8 368.9 74.5 366.9 76.8L368.3 106.9L371.2 105.2L372.2 91.1L379.4 80.5L416.5 76L412.3 80.2L376.6 87.8L373 93.7L377.7 120.1L385.9 116L382.5 102.2L387.1 94L413.2 92.3L432.3 105.5L430.1 155.1L435.6 175L446.3 189.3L421.8 188.8L375.8 150L347 112.9L353 113.6L355.8 110L353.5 109.8L353.2 102.6L351.8 97.4L353.9 98.4L352.7 88.5L355.4 80.9L375 56.6L382.2 54L409.7 62.9Z" fill="#7C8A54"/>
    <path d="M347 112.9L355.9 115L360.5 111.1L364.4 88.1L364.2 114.2L367.3 120.7L377.5 123.3L375.5 113.7L380.8 124.3L391.2 127.7L401.2 123.8L412.1 120.9L413.6 114.5L407.9 111.7L398 111.8L394.7 113.5L396.5 108.1L393.5 104.3L399.7 104.7L404.5 101.7L411.1 108.6L424.7 111.1L421 118.6L422.1 126.4L415.7 129.3L413.4 135.5L415.6 139.7L406.1 139L390.5 131.8L365.6 122.3L349 115.5L347 112.9Z" fill="#1A1A1A"/>
    <path d="M379.5 62.4L385.9 65L395 65.8L402.7 67.2L370.8 71.1L379.5 62.4Z" fill="#1A1A1A"/>
    <path d="M485.7 178.2L481.4 162.9L448.4 97.1L440.1 72.7L436.7 71L432.3 60.6L412 56.4L372.2 45L367.2 47L336 42.3L326.1 42.8L311.4 43.2L308.2 48.9L310.3 51.8L357.6 58.5L341.6 82.9L345 106.8L335.9 105.5L347 112.9L375.8 150L395.9 166.7L421.8 188.8" stroke="#1A1A1A" stroke-width="2" stroke-linecap="round" stroke-linejoin="round"/>
    <path opacity="0.5" d="M310.3 51.8L314.1 54.5L334.9 58.6L348.6 61.4L335.3 81L337.5 105.6L345 106.8L341.8 82.5L357.6 58.5L310.3 51.8Z" fill="#36343C"/>
    <path d="M47.2 159.7L59.6 352.6C59.7 354.8 61.7 356.6 63.9 356.4L384.2 335.8C386.5 335.7 388.2 333.7 388.1 331.4L375.7 138.6L47.2 159.7Z" fill="white" stroke="#1A1A1A" stroke-width="2" stroke-linecap="square" stroke-linejoin="round"/>
    <path d="M267.9 161.8L147.9 169.5C147 169.6 146.3 170.3 146.3 171.2L146.9 180.3C147 181.2 147.8 181.9 148.7 181.8L268.7 174.1C269.6 174 270.3 173.3 270.3 172.4L269.7 163.3C269.6 162.4 268.8 161.7 267.9 161.8Z" fill="#B25C59"/>
    <path d="M298.3 186.7L224.3 191.4C222 191.6 220.3 193.5 220.5 195.8L227.9 310.9C228 313.2 230 314.9 232.2 314.8L306.3 310C308.5 309.9 310.2 307.9 310.1 305.7L302.7 190.5C302.5 188.3 300.6 186.5 298.3 186.7Z" fill="#7C8A54"/>
    <path d="M237.1 230.3C236.9 227.6 237 224.7 237.2 221.7C237.5 218.7 238.2 216 239.3 213.4C240.5 210.9 242.1 208.8 244.1 207.1C246.2 205.3 249 204.3 252.6 204.1L270.8 202.9C273.7 202.7 276.3 203.2 278.5 204.2C280.9 205.2 282.8 206.6 284.3 208.3C285.9 210.1 287.1 212.1 288.1 214.4C289.1 216.7 289.8 219 290.1 221.3C290.5 223.6 290.6 225.9 290.3 228.1C290.1 230.3 289.6 232.3 288.8 234L275.9 261.6L276.7 273.4L261.7 274.3L260.8 261L273.1 236C273.8 234.7 274.2 232.9 274.3 230.8C274.6 228.7 274.4 226.7 274 224.8C273.6 222.8 272.8 221.2 271.7 219.9C270.6 218.5 269.2 217.9 267.4 218.1L258.9 218.6C257.4 218.7 256.2 219 255.3 219.6C254.4 220.1 253.6 220.9 253.1 221.9C252.6 222.8 252.3 223.9 252.2 225.2C252.1 226.4 252.1 227.8 252.2 229.4L237.1 230.3ZM278.6 297.3L263.2 298.3L262.2 283.1L277.6 282.1L278.6 297.3Z" fill="#C3E06D"/>
    <path d="M198.5 197.8L117.9 203C117.5 203 117.1 203.4 117.2 203.8L117.3 206.3C117.4 206.7 117.7 207.1 118.2 207.1L198.8 201.9C199.2 201.9 199.6 201.5 199.5 201L199.4 198.5C199.4 198.1 199 197.7 198.5 197.8Z" fill="#36343C"/>
    <path d="M198.9 204.3L118.4 209.5C117.9 209.6 117.6 209.9 117.6 210.4L117.8 212.9C117.8 213.3 118.2 213.7 118.6 213.6L199.2 208.5C199.7 208.4 200 208 200 207.6L199.8 205.1C199.8 204.7 199.4 204.3 198.9 204.3Z" fill="#36343C"/>
    <path d="M199.4 210.9L118.8 216.1C118.3 216.1 118 216.5 118 217L118.2 219.4C118.2 219.9 118.6 220.2 119 220.2L199.6 215C200.1 215 200.4 214.6 200.4 214.2L200.2 211.7C200.2 211.2 199.8 210.9 199.4 210.9Z" fill="#36343C"/>
    <path d="M199.8 217.5L119.2 222.7C118.8 222.7 118.4 223.1 118.4 223.6L118.6 226C118.6 226.5 119 226.8 119.5 226.8L200 221.6C200.5 221.6 200.8 221.2 200.8 220.7L200.7 218.3C200.6 217.8 200.2 217.5 199.8 217.5Z" fill="#36343C"/>
    <path d="M139.2 228L119 229.3C118.9 229.3 118.8 229.4 118.8 229.5L119.1 233.2C119.1 233.3 119.2 233.4 119.3 233.4L139.4 232.1C139.5 232.1 139.6 232 139.6 231.9L139.4 228.2C139.4 228.1 139.3 228 139.2 228Z" fill="#36343C"/>
    <path d="M201.2 239.6L120.6 244.8C120.2 244.8 119.8 245.2 119.9 245.6L120 248.1C120 248.6 120.4 248.9 120.9 248.9L201.5 243.7C201.9 243.7 202.3 243.3 202.2 242.8L202.1 240.3C202 239.9 201.7 239.5 201.2 239.6Z" fill="#36343C"/>
    <path d="M201.6 246.2L121 251.3C120.6 251.4 120.2 251.8 120.3 252.2L120.4 254.7C120.5 255.1 120.9 255.5 121.3 255.4L201.9 250.3C202.3 250.2 202.7 249.8 202.7 249.4L202.5 246.9C202.5 246.5 202.1 246.1 201.6 246.2Z" fill="#36343C"/>
    <path d="M202 252.7L121.5 257.9C121 257.9 120.7 258.3 120.7 258.8L120.9 261.3C120.9 261.7 121.3 262.1 121.7 262L202.3 256.8C202.8 256.8 203.1 256.4 203.1 256L202.9 253.5C202.9 253 202.5 252.7 202 252.7Z" fill="#36343C"/>
    <path d="M202.5 259.3L121.9 264.5C121.4 264.5 121.1 264.9 121.1 265.4L121.3 267.8C121.3 268.3 121.7 268.6 122.2 268.6L202.7 263.4C203.2 263.4 203.5 263 203.5 262.5L203.3 260.1C203.3 259.6 202.9 259.3 202.5 259.3Z" fill="#36343C"/>
    <path d="M182.5 267.2L122.1 271.1C121.8 271.1 121.5 271.4 121.5 271.7L121.7 274.6C121.7 275 122 275.2 122.4 275.2L182.8 271.3C183.1 271.3 183.4 271 183.4 270.6L183.2 267.8C183.2 267.4 182.9 267.2 182.5 267.2Z" fill="#36343C"/>
    <path d="M203.9 281.4L123.3 286.6C122.9 286.6 122.5 287 122.5 287.4L122.7 289.9C122.7 290.4 123.1 290.7 123.6 290.7L204.2 285.5C204.6 285.5 205 285.1 204.9 284.6L204.8 282.1C204.7 281.7 204.3 281.4 203.9 281.4Z" fill="#36343C"/>
    <path d="M204.3 288L123.7 293.1C123.3 293.2 122.9 293.6 123 294L123.1 296.5C123.2 296.9 123.5 297.3 124 297.2L204.6 292.1C205 292 205.4 291.6 205.3 291.2L205.2 288.7C205.2 288.3 204.8 287.9 204.3 288Z" fill="#36343C"/>
    <path d="M204.7 294.5L124.2 299.7C123.7 299.7 123.4 300.1 123.4 300.6L123.5 303.1C123.6 303.5 124 303.9 124.4 303.8L205 298.6C205.5 298.6 205.8 298.2 205.8 297.8L205.6 295.3C205.6 294.9 205.2 294.5 204.7 294.5Z" fill="#36343C"/>
    <path d="M205.2 301.1L124.6 306.3C124.1 306.3 123.8 306.7 123.8 307.2L124 309.6C124 310.1 124.4 310.4 124.8 310.4L205.4 305.2C205.9 305.2 206.2 304.8 206.2 304.3L206 301.9C206 301.4 205.6 301.1 205.2 301.1Z" fill="#36343C"/>
    <path d="M164.9 310.3L124.6 312.9C124.4 312.9 124.2 313.1 124.2 313.3L124.4 316.6C124.4 316.8 124.6 317 124.9 317L165.1 314.4C165.4 314.4 165.5 314.2 165.5 314L165.3 310.7C165.3 310.5 165.1 310.3 164.9 310.3Z" fill="#36343C"/>
    <path d="M32.7 248.3L51.4 225L47.2 159.7L41.6 169.3L40.6 212.2L32.7 248.3Z" fill="white"/>
    <path d="M118.9 265.2L112.4 261.7L114 260.8L107.1 255.6L104 250.6L102.2 251.1L59.2 235.2L51 237.4L29.6 265.3L30.2 271.5L36.5 270.2L55.8 248L62.7 245.9L99.4 262L102.5 264.8L108.7 268.3L118.9 265.2Z" fill="white"/>
    <path d="M102.5 264.8L97.8 270.9L69.9 258.8L65.3 256.5L55.1 260.7L43.8 278.5L42.4 296.4L57.7 296L74.9 290.1L74.4 297.9L42 318.9L42 337.7L32 362.2L45.1 389.5L58.9 380.2L67.7 347.4L66 329.1L70.9 319.9L78.2 317.9L94.7 304.9L96 294.5L103 296L106.5 288.8L102.5 264.8" fill="white"/>
    <path d="M103 296L95.9 290.5L89.2 274.9L70.8 268.7L60.4 280.7L64.8 284.1L49.1 294.5L80.2 277L87.4 278.4L96 294.5L103 296Z" fill="white"/>
    <path d="M83.8 298.8L80.4 303.7L70.9 308.7L63.9 310.4L72.6 310.5L70.9 319.9L78.2 317.9L77.9 311.3L85.6 305.2L82.9 304.4L83.8 298.8Z" fill="white"/>
    <path d="M13.6 338.9L15.8 297.1L14 275.9L28.3 251.7L33.9 207.2L34 163L38.5 156.8L47.2 159.7L51.4 225L57.1 222.1L101.3 238.6L108.3 247L121.9 257.1L118.9 265.2L108.7 268.3L102.5 264.8L104.9 279L106.5 288.8L103 296L96 294.5L94.7 304.9L78.2 317.9L70.9 319.9L66 329.1L67.7 347.4L58.9 380.2L45.1 389.5" fill="#C3E06D"/>
    <path d="M13.6 338.9L15.8 297.1L14 275.9L28.3 251.7L33.9 207.2L34 163L38.5 156.8L47.2 159.7L51.4 225L57.1 222.1L101.3 238.6L108.3 247L121.9 257.1L118.9 265.2L108.7 268.3L102.5 264.8L104.9 279L106.5 288.8L103 296L96 294.5L94.7 304.9L78.2 317.9L70.9 319.9L66 329.1L67.7 347.4L58.9 380.2L45.1 389.5" stroke="black" stroke-width="2" stroke-linecap="round" stroke-linejoin="round"/>
    <path opacity="0.5" d="M47 159.7L50.2 164.9L54.2 223.3L51.4 225L47 159.7L47 159.7ZM123.8 261.9L120.4 269.6L108.9 272.7L109.4 292.5L105 300.1L99 299.6L97.5 308.8L80 322.8L73.2 324.7L70.3 332.3L71.5 349.7L70.3 356.3L63.9 356.4L67.7 347.4L66 329.1L70.9 319.9L78.2 317.9L94.7 304.8L96 294.4L103 296L106.5 288.8L102.5 264.8L108.7 268.3L118.8 265.1L121.2 258.4L123.8 261.9Z" fill="#36343C"/>
    <path d="M32.7 248.3L51.4 225L47.2 159.7L41.6 169.3L40.6 212.2L32.7 248.3Z" fill="#7C8A54"/>
    <path d="M118.9 265.2L112.4 261.7L114 260.8L107.1 255.6L104 250.6L102.2 251.1L59.2 235.2L51 237.4L29.6 265.3L30.2 271.5L36.5 270.2L55.8 248L62.7 245.9L99.4 262L102.5 264.8L108.7 268.3L118.9 265.2Z" fill="#7C8A54"/>
    <path d="M102.5 264.8L97.8 270.9L69.9 258.8L65.3 256.5L55.1 260.7L43.8 278.5L42.4 296.4L57.7 296L74.9 290.1L74.4 297.9L42 318.9L42 337.7L32 362.2L45.1 389.5L58.9 380.2L67.7 347.4L66 329.1L70.9 319.9L78.2 317.9L94.7 304.9L96 294.5L103 296L106.5 288.8L102.5 264.8" fill="#7C8A54"/>
    <path d="M103 296L95.9 290.5L89.2 274.9L70.8 268.7L60.4 280.7L64.8 284.1L49.1 294.5L80.2 277L87.4 278.4L96 294.5L103 296Z" fill="#1A1A1A"/>
    <path d="M83.8 298.8L80.4 303.7L70.9 308.7L63.9 310.4L72.6 310.5L70.9 319.9L78.2 317.9L77.9 311.3L85.6 305.2L82.9 304.4L83.8 298.8Z" fill="#1A1A1A"/>
    <path d="M13.6 338.9L15.8 297.1L14 275.9L28.3 251.7L33.9 207.2L34 163L38.5 156.8L47.2 159.7L51.4 225L57.1 222.1L101.3 238.6L108.3 247L121.9 257.1L118.9 265.2L108.7 268.3L102.5 264.8L104.9 279L106.5 288.8L103 296L96 294.5L94.7 304.9L78.2 317.9L70.9 319.9L66 329.1L67.7 347.4L58.9 380.2L45.1 389.5" stroke="#1A1A1A" stroke-width="2" stroke-linecap="round" stroke-linejoin="round"/>
</svg>