<svg viewBox="0 0 301 115" fill="none" xmlns="http://www.w3.org/2000/svg">
    <path d="M92.9 1.5V113.3H204.8V1.5H92.9Z" fill="#B25C59" stroke="white" stroke-width="2" stroke-linecap="round" stroke-linejoin="round"/>
    <path d="M147.8 48.8L147.8 25.6L149.3 23.6L156.3 23.5L157.1 32.9L159.6 23.5L164.7 23.5L166.7 26.7L168.1 23.5L172.6 23.5L173.5 24.9L174.4 23.5L177.1 23.5L179.4 25.7L179.6 48.8L147.8 48.8Z" fill="white" stroke="white" stroke-linecap="round" stroke-linejoin="round"/>
    <path d="M147.9 52.3L179.5 52.4L179.3 59.6L177.4 61.1L168.9 61.5L166.9 63.2L166.8 65.7L169.8 85.2L167.5 89.5L162.4 91.3L157.2 88.5L156 84.5L159.1 64.3L158.3 62.4L156.1 61.6L150 61.5L147.8 59.2L147.9 52.3Z" fill="white" stroke="white" stroke-linecap="round" stroke-linejoin="round"/>
    <path d="M118.1 37.7L125.3 26.5H137.4V88.3H126.9V37.7H118.1Z" fill="white"/>
    <path d="M0.8 20.5V104.4H84.7V20.5H0.8Z" fill="#B25C59" stroke="white" stroke-width="1.5" stroke-linecap="round" stroke-linejoin="round"/>
    <path d="M48.1 56.8L48.1 41.3L49.1 40L53.8 39.9L54.3 46.2L56 39.9L59.4 39.9L60.7 42.1L61.6 39.9L64.6 39.9L65.2 40.9L65.8 39.9L67.6 39.9L69.1 41.4L69.3 56.8L48.1 56.8Z" fill="white" stroke="white" stroke-linecap="round" stroke-linejoin="round"/>
    <path d="M48.2 59.1L69.2 59.2L69.1 63.9L67.8 65L62.1 65.3L60.8 66.4L60.7 68L62.7 81L61.2 83.9L57.8 85.1L54.4 83.2L53.6 80.6L55.6 67.1L55.1 65.8L53.6 65.3L49.6 65.2L48.1 63.7L48.2 59.1Z" fill="white" stroke="white" stroke-linecap="round" stroke-linejoin="round"/>
    <path d="M16.6 73.9C19.4 71.8 22.2 69.6 24.8 67.3C27.4 65 30 62.7 32.4 60.5C33 59.9 33.6 59.3 34 58.8C34.5 58.3 34.9 57.8 35.2 57.3C35.4 56.8 35.6 56.2 35.8 55.6C35.9 54.9 36 54.2 36 53.2C36 52.6 35.9 52 35.6 51.4C35.4 50.7 35 50.2 34.6 49.7C34.1 49.3 33.6 48.9 33 48.7C32.4 48.4 31.8 48.3 31.2 48.3H27.8C27.1 48.3 26.5 48.4 25.9 48.7C25.3 48.9 24.7 49.3 24.3 49.7C23.8 50.2 23.5 50.7 23.2 51.4C23 52 22.8 52.6 22.8 53.2V54.7H16.2V52C16.2 50.5 16.5 49.1 17 47.9C17.6 46.5 18.4 45.4 19.3 44.4C20.3 43.4 21.5 42.7 22.8 42.1C24.1 41.5 25.5 41.3 27 41.3H32.3C33.7 41.3 35.1 41.5 36.4 42.1C37.8 42.7 38.9 43.4 39.9 44.4C40.8 45.4 41.6 46.5 42.2 47.9C42.7 49.1 43 50.5 43 52V52.9C43 54.1 43 55.2 42.8 56.2C42.7 57.3 42.5 58.2 42.2 59.1C41.9 60 41.4 60.9 40.8 61.7C40.2 62.5 39.4 63.4 38.4 64.3C36.1 66.6 33.7 68.8 31.2 70.9C28.7 73.1 26.1 75.1 23.6 76.9H42.3V83.1H16.6L16.6 73.9Z" fill="white"/>
    <path d="M213.6 20V103.9H297.5V20H213.6Z" fill="#B25C59" stroke="white" stroke-width="1.5" stroke-linecap="round" stroke-linejoin="round"/>
    <path d="M261.3 56L261.3 40.1L262.3 38.8L267.1 38.7L267.7 45.2L269.4 38.7L272.9 38.7L274.3 40.9L275.2 38.7L278.3 38.7L278.9 39.7L279.5 38.7L281.4 38.7L283 40.2L283.1 56.1L261.3 56Z" fill="white" stroke="white" stroke-linecap="round" stroke-linejoin="round"/>
    <path d="M261.4 58.5L283.1 58.5L282.9 63.4L281.6 64.5L275.8 64.8L274.4 66L274.3 67.6L276.4 81L274.8 84L271.3 85.2L267.7 83.3L266.9 80.6L269 66.7L268.5 65.4L267 64.8L262.8 64.8L261.3 63.2L261.4 58.5Z" fill="white" stroke="white" stroke-linecap="round" stroke-linejoin="round"/>
    <path d="M256.4 48C257.2 50.2 257.3 52.4 256.9 54.5C256.5 56.6 255.5 58.4 253.7 60.1L253.3 60.5L253.7 60.9C254.8 62 255.6 63.3 256.2 64.7C257.7 68.4 257.7 72.2 256.2 76C255.6 77.3 254.9 78.5 253.9 79.6C252.9 80.6 251.8 81.5 250.5 82C249.5 82.5 248.6 82.8 247.6 83C246.7 83.2 245.7 83.3 244.8 83.3C243.8 83.4 242.9 83.4 241.9 83.4C240.9 83.4 239.9 83.4 238.9 83.4C237.4 83.4 236 83.1 234.7 82.5C233.3 82 232.2 81.2 231.2 80.2C230.2 79.1 229.4 77.9 228.8 76.6C228.3 75.2 228 73.8 228 72.3V71.1H234.7C234.7 71.8 234.9 72.4 235.1 73C235.4 73.7 235.8 74.3 236.3 74.7C236.8 75.1 237.5 75.4 238.2 75.7C238.9 75.9 239.6 76.1 240.3 76.2C241.1 76.2 241.8 76.2 242.4 76.2C243.3 76.1 244.1 76 245 75.8C245.9 75.6 246.8 75.3 247.5 74.8C248.4 74 249 73 249.2 71.8C249.5 70.5 249.5 69.2 249.2 68C248.6 65.8 247.1 64.5 244.6 64C243.6 63.8 242.3 63.7 240.6 63.7H238.4V57.2H240.6C242.3 57.2 243.6 57.1 244.6 56.9C245.8 56.7 246.8 56.3 247.5 55.8C248 55.3 248.4 54.8 248.7 54.3C249 53.6 249.1 53 249.1 52.3C249.2 51.7 249 51 248.8 50.4C248.5 49.7 248.1 49.1 247.5 48.6C247 48.2 246.4 47.8 245.6 47.6C244.8 47.3 243.9 47.2 243 47.2C242 47.1 241.1 47.2 240.1 47.3C239.1 47.5 238.2 47.7 237.4 48.2C236.6 48.6 236 49.1 235.5 49.8C235 50.5 234.7 51.4 234.7 52.4H228V51.1C228 49.3 228.4 47.7 229.1 46.4C229.9 44.9 230.9 43.8 232.1 42.9C233.3 41.9 234.6 41.3 236.2 40.8C237.7 40.3 239.3 40.1 240.9 40.1C241.7 40.1 242.3 40.1 242.8 40.1C243.3 40.1 243.6 40.1 243.9 40.1C244.1 40.1 244.3 40.1 244.4 40.1C244.5 40.1 244.6 40.1 244.6 40.1C245.1 40.2 245.6 40.2 246.1 40.2C246.6 40.3 247.1 40.4 247.6 40.4C248.5 40.6 249.5 41 250.4 41.4C251.3 41.8 252.2 42.4 252.9 43C253.7 43.7 254.4 44.4 255 45.3C255.6 46.2 256.1 47.1 256.4 48L256.4 48Z" fill="white"/>
</svg>