<svg viewBox="0 0 202 158" fill="none" xmlns="http://www.w3.org/2000/svg">
    <path d="M1.7 1.9V156.7H188.2V1.9H1.7Z" fill="#C0DD6C" stroke="#1A1A1A" stroke-width="2" stroke-linecap="round" stroke-linejoin="round"/>
    <path d="M121.9 67.3L121.9 35.2L123.9 32.4L133.7 32.2L134.8 45.3L138.2 32.2L145.3 32.2L148.1 36.7L150 32.2L156.2 32.2L157.5 34.2L158.7 32.2L162.5 32.2L165.7 35.3L166 67.4L121.9 67.3Z" fill="#1A1A1A" stroke="#1A1A1A" stroke-linecap="round" stroke-linejoin="round"/>
    <path d="M122 72.3L165.9 72.3L165.6 82.3L162.9 84.5L151.1 85L148.3 87.4L148.2 90.8L152.3 117.9L149.2 123.9L142.2 126.3L134.9 122.4L133.3 116.9L137.5 88.9L136.4 86.2L133.4 85.1L124.9 85L121.8 81.7L122 72.3Z" fill="#1A1A1A" stroke="#1A1A1A" stroke-linecap="round" stroke-linejoin="round"/>
    <path d="M88.7 101.4C86.3 101.4 84.1 101 82.1 100.2C80.2 99.4 78.3 98.3 76.4 97C74.6 95.7 72.9 94.2 71.2 92.6C69.6 90.9 68.1 89.2 66.6 87.5C65 89.1 63.4 90.8 61.8 92.6C60.1 94.2 58.4 95.7 56.6 97C54.7 98.3 52.7 99.4 50.6 100.2C48.4 101 46.1 101.4 43.5 101.4C40.6 101.4 37.9 100.9 35.4 99.7C33.1 98.6 31.1 97.1 29.3 95.2C27.6 93.2 26.3 90.9 25.3 88.1C24.4 85.4 24 82.4 24 79.2C24 76.3 24.4 73.5 25.3 70.8C26.4 68.1 27.7 65.7 29.5 63.6C31.3 61.6 33.5 60 36.1 58.9C38.6 57.7 41.4 57.1 44.5 57.1C46.7 57.1 48.9 57.5 50.9 58.3C52.9 59.1 54.9 60.2 56.7 61.5C58.5 62.8 60.3 64.4 61.9 66.1C63.5 67.7 65.1 69.4 66.6 71C68.2 69.3 69.7 67.6 71.2 65.9C72.9 64.3 74.6 62.8 76.4 61.5C78.3 60.2 80.3 59.1 82.4 58.3C84.6 57.5 87 57.1 89.6 57.1C92.6 57.1 95.2 57.6 97.5 58.7C100 59.8 102.1 61.3 103.8 63.3C105.6 65.3 106.9 67.6 107.8 70.4C108.7 73 109.2 76 109.2 79.2C109.2 82.3 108.7 85.2 107.6 88C106.7 90.6 105.3 93 103.5 95C101.7 96.9 99.5 98.5 96.9 99.7C94.4 100.9 91.6 101.4 88.7 101.4V101.4ZM44.2 89.8C45.5 89.8 46.8 89.5 48.1 88.9C49.6 88.3 50.9 87.5 52.1 86.4C53.4 85.4 54.7 84.3 55.8 83.1C57 81.7 58.1 80.5 59.2 79.2C58.4 78.3 57.5 77.3 56.4 76C55.3 74.7 54.1 73.5 52.7 72.4C51.5 71.2 50.2 70.3 48.7 69.6C47.3 68.9 45.9 68.5 44.5 68.5C41.9 68.5 39.7 69.6 37.9 71.8C36.2 73.8 35.3 76.3 35.3 79.2C35.3 82.4 36.2 85 37.9 86.9C39.6 88.8 41.7 89.8 44.2 89.8V89.8ZM97.7 79.2C97.7 76.2 96.8 73.6 95.1 71.6C93.5 69.6 91.4 68.5 89 68.5C87.6 68.5 86.1 68.9 84.7 69.6C83.3 70.2 81.9 71 80.6 72.1C79.3 73.1 78.2 74.2 77 75.4C75.9 76.6 74.9 77.9 73.8 79.1C74.9 80.2 75.9 81.4 77 82.8C78.3 84 79.4 85.1 80.6 86.1C81.8 87.2 83.1 88 84.4 88.7C85.7 89.4 87.1 89.8 88.7 89.8C89.9 89.8 91 89.5 92 89C93.2 88.4 94.1 87.7 94.9 86.7C95.8 85.7 96.4 84.6 96.9 83.4C97.4 82.2 97.7 80.8 97.7 79.2V79.2Z" fill="#1A1A1A"/>
</svg>