<svg viewBox="0 0 113 203" fill="none" xmlns="http://www.w3.org/2000/svg">
    <path d="M106 7H4.9V41.6H106V7Z" fill="#C0DD6C"/>
    <path d="M104.3 41.3H8.4V191.8H104.3V41.3Z" fill="#C0DD6C" stroke="#1A1A1A" stroke-width="1.8" stroke-linejoin="round"/>
    <path d="M28 30.9L25.4 32.7L22.3 33.3L19.2 32.7L16.6 30.9L14.9 28.3L14.3 25.2L14.9 22.2L16.6 19.5L19.2 17.8L22.3 17.2L25.4 17.8L28 19.5L29.7 22.2L30.4 25.2L29.7 28.3L28 30.9Z" fill="#1A1A1A"/>
    <path d="M98.8 27.2L97.9 27.8L96.8 28.1L95.7 27.8L94.8 27.2L94.2 26.3L94 25.2L94.2 24.2L94.8 23.2L95.7 22.6L96.8 22.4L97.9 22.6L98.8 23.2L99.4 24.2L99.6 25.2L99.4 26.3L98.8 27.2Z" fill="#1A1A1A"/>
    <path d="M90.4 27.2L89.5 27.8L88.5 28.1L87.4 27.8L86.5 27.2L85.8 26.3L85.6 25.2L85.8 24.2L86.5 23.2L87.4 22.6L88.5 22.4L89.5 22.6L90.4 23.2L91.1 24.2L91.3 25.2L91.1 26.3L90.4 27.2Z" fill="#1A1A1A"/>
    <path d="M82.1 27.2L81.2 27.8L80.1 28.1L79 27.8L78.1 27.2L77.5 26.3L77.3 25.2L77.5 24.2L78.1 23.2L79 22.6L80.1 22.4L81.2 22.6L82.1 23.2L82.7 24.2L82.9 25.2L82.7 26.3L82.1 27.2Z" fill="#1A1A1A"/>
    <path d="M95.2 54.5H18.7C18.2 54.5 17.9 54.9 17.9 55.6V58.8C17.9 59.4 18.2 59.9 18.7 59.9H95.2C95.7 59.9 96 59.4 96 58.8V55.6C96 54.9 95.7 54.5 95.2 54.5Z" fill="#1A1A1A"/>
    <path d="M95.2 63.2H18.7C18.2 63.2 17.9 63.7 17.9 64.3V67.6C17.9 68.2 18.2 68.7 18.7 68.7H95.2C95.7 68.7 96 68.2 96 67.6V64.3C96 63.7 95.7 63.2 95.2 63.2Z" fill="#1A1A1A"/>
    <path d="M95.2 72H18.7C18.2 72 17.9 72.5 17.9 73.1V76.4C17.9 77 18.2 77.5 18.7 77.5H95.2C95.7 77.5 96 77 96 76.4V73.1C96 72.5 95.7 72 95.2 72Z" fill="#1A1A1A"/>
    <path d="M95.2 80.8H18.7C18.2 80.8 17.9 81.3 17.9 81.9V85.2C17.9 85.8 18.2 86.3 18.7 86.3H95.2C95.7 86.3 96 85.8 96 85.2V81.9C96 81.3 95.7 80.8 95.2 80.8Z" fill="#1A1A1A"/>
    <path d="M37.2 89.6H18.1C18 89.6 17.9 89.7 17.9 89.9V94.8C17.9 94.9 18 95.1 18.1 95.1H37.2C37.3 95.1 37.4 94.9 37.4 94.8V89.9C37.4 89.7 37.3 89.6 37.2 89.6Z" fill="#1A1A1A"/>
    <path d="M95.2 110.3H18.7C18.2 110.3 17.9 110.8 17.9 111.4V114.7C17.9 115.3 18.2 115.8 18.7 115.8H95.2C95.7 115.8 96 115.3 96 114.7V111.4C96 110.8 95.7 110.3 95.2 110.3Z" fill="#1A1A1A"/>
    <path d="M95.2 119H18.7C18.2 119 17.9 119.5 17.9 120.1V123.4C17.9 124 18.2 124.5 18.7 124.5H95.2C95.7 124.5 96 124 96 123.4V120.1C96 119.5 95.7 119 95.2 119Z" fill="#1A1A1A"/>
    <path d="M95.2 127.8H18.7C18.2 127.8 17.9 128.3 17.9 128.9V132.2C17.9 132.8 18.2 133.3 18.7 133.3H95.2C95.7 133.3 96 132.8 96 132.2V128.9C96 128.3 95.7 127.8 95.2 127.8Z" fill="#1A1A1A"/>
    <path d="M95.2 136.6H18.7C18.2 136.6 17.9 137.1 17.9 137.7V141C17.9 141.6 18.2 142.1 18.7 142.1H95.2C95.7 142.1 96 141.6 96 141V137.7C96 137.1 95.7 136.6 95.2 136.6Z" fill="#1A1A1A"/>
    <path d="M75.9 145.4H18.5C18.1 145.4 17.9 145.8 17.9 146.2V150.1C17.9 150.5 18.1 150.9 18.5 150.9H75.9C76.2 150.9 76.5 150.5 76.5 150.1V146.2C76.5 145.8 76.2 145.4 75.9 145.4Z" fill="#1A1A1A"/>
    <path d="M1.4 1.9V201.9H111.6V1.9H1.4ZM8.8 9.6H104.2V161.5H8.8V9.6Z" fill="#1A1A1A" stroke="#C0DD6C" stroke-width="2" stroke-linejoin="round"/>
    <path d="M67.9 187L61.2 193.6L51.8 193.6L45.1 186.9L45.2 177.5L51.8 170.9L61.2 170.9L67.9 177.6L67.9 187Z" fill="#C0DD6C"/>
</svg>