<svg viewBox="0 0 300 226" fill="none" xmlns="http://www.w3.org/2000/svg">
    <path d="M292.1 5.3H8.8V47.8H292.1V5.3Z" fill="#B25C59" stroke="white" stroke-width="2" stroke-linejoin="round"/>
    <path d="M292.1 47.8H8.8V217.8H292.1V47.8Z" fill="#B25C59" stroke="white" stroke-width="2" stroke-linejoin="round"/>
    <path d="M41 34.2L37.4 36.5L33.3 37.4L29.2 36.5L25.7 34.2L23.3 30.7L22.5 26.5L23.3 22.4L25.7 18.9L29.2 16.6L33.3 15.7L37.4 16.6L41 18.9L43.3 22.4L44.1 26.5L43.3 30.7L41 34.2Z" fill="white"/>
    <path d="M276.5 29.9L274.9 31L273.1 31.3L271.3 31L269.7 29.9L268.7 28.4L268.3 26.5L268.7 24.7L269.7 23.2L271.3 22.1L273.1 21.7L274.9 22.1L276.5 23.2L277.5 24.7L277.9 26.5L277.5 28.4L276.5 29.9Z" fill="white"/>
    <path d="M262.3 29.9L260.8 31L258.9 31.3L257.1 31L255.5 29.9L254.5 28.4L254.1 26.5L254.5 24.7L255.5 23.2L257.1 22.1L258.9 21.7L260.8 22.1L262.3 23.2L263.4 24.7L263.7 26.5L263.4 28.4L262.3 29.9Z" fill="white"/>
    <path d="M248.2 29.9L246.6 31L244.8 31.3L242.9 31L241.4 29.9L240.3 28.4L240 26.5L240.3 24.7L241.4 23.2L242.9 22.1L244.8 21.7L246.6 22.1L248.2 23.2L249.2 24.7L249.6 26.5L249.2 28.4L248.2 29.9Z" fill="white"/>
    <path d="M121 23H90.2V30.1H121V23Z" fill="white"/>
    <path d="M157.5 23H126.6V30.1H157.5V23Z" fill="white"/>
    <path d="M193.9 23H163.1V30.1H193.9V23Z" fill="white"/>
    <path d="M219.9 70.6H81C80.2 70.6 79.6 71.2 79.6 72V76.2C79.6 77 80.2 77.7 81 77.7H219.9C220.6 77.7 221.3 77 221.3 76.2V72C221.3 71.2 220.6 70.6 219.9 70.6Z" fill="white"/>
    <path d="M219.9 81.9H81C80.2 81.9 79.6 82.5 79.6 83.3V87.6C79.6 88.4 80.2 89 81 89H219.9C220.6 89 221.3 88.4 221.3 87.6V83.3C221.3 82.5 220.6 81.9 219.9 81.9Z" fill="white"/>
    <path d="M219.9 93.2H81C80.2 93.2 79.6 93.9 79.6 94.7V98.9C79.6 99.7 80.2 100.3 81 100.3H219.9C220.6 100.3 221.3 99.7 221.3 98.9V94.7C221.3 93.9 220.6 93.2 219.9 93.2Z" fill="white"/>
    <path d="M219.9 104.6H81C80.2 104.6 79.6 105.2 79.6 106V110.2C79.6 111 80.2 111.7 81 111.7H219.9C220.6 111.7 221.3 111 221.3 110.2V106C221.3 105.2 220.6 104.6 219.9 104.6Z" fill="white"/>
    <path d="M114.7 115.9H79.9C79.8 115.9 79.6 116.1 79.6 116.3V122.6C79.6 122.8 79.8 123 79.9 123H114.7C114.9 123 115 122.8 115 122.6V116.3C115 116.1 114.9 115.9 114.7 115.9Z" fill="white"/>
    <path d="M219.9 142.6H81C80.2 142.6 79.6 143.2 79.6 144V148.3C79.6 149.1 80.2 149.7 81 149.7H219.9C220.6 149.7 221.3 149.1 221.3 148.3V144C221.3 143.2 220.6 142.6 219.9 142.6Z" fill="white"/>
    <path d="M219.9 153.9H81C80.2 153.9 79.6 154.6 79.6 155.4V159.6C79.6 160.4 80.2 161 81 161H219.9C220.6 161 221.3 160.4 221.3 159.6V155.4C221.3 154.6 220.6 153.9 219.9 153.9Z" fill="white"/>
    <path d="M219.9 165.3H81C80.2 165.3 79.6 165.9 79.6 166.7V170.9C79.6 171.7 80.2 172.4 81 172.4H219.9C220.6 172.4 221.3 171.7 221.3 170.9V166.7C221.3 165.9 220.6 165.3 219.9 165.3Z" fill="white"/>
    <path d="M219.9 176.6H81C80.2 176.6 79.6 177.2 79.6 178V182.3C79.6 183.1 80.2 183.7 81 183.7H219.9C220.6 183.7 221.3 183.1 221.3 182.3V178C221.3 177.2 220.6 176.6 219.9 176.6Z" fill="white"/>
    <path d="M184.8 187.9H80.7C80.1 187.9 79.6 188.4 79.6 189V194C79.6 194.6 80.1 195 80.7 195H184.8C185.4 195 185.9 194.6 185.9 194V189C185.9 188.4 185.4 187.9 184.8 187.9Z" fill="white"/>
    <path opacity="0.5" d="M106.6 6.4V187H0V225.3H300V0H105.2L106.6 6.4Z" fill="#36343C"/>
    <path d="M5.9 1.2V190.8H110.3V1.2H5.9ZM12.9 8.5H103.3V152.5H12.9V8.5Z" fill="white" stroke="#B25C59" stroke-width="2" stroke-linejoin="round"/>
    <path d="M68.9 176.7L62.5 182.9L53.6 182.9L47.3 176.6L47.4 167.7L53.7 161.4L62.6 161.4L68.9 167.7L68.9 176.7Z" fill="#B25C59"/>
</svg>