<svg viewBox="0 0 303 164" fill="none" xmlns="http://www.w3.org/2000/svg">
    <path d="M1.5 2V71.1H119.1V2H1.5Z" fill="#B25C59" stroke="white" stroke-width="2" stroke-linecap="round" stroke-linejoin="round"/>
    <path d="M119.1 2V71.1H301.5V2H119.1Z" fill="#B25C59" stroke="white" stroke-width="2" stroke-linecap="round" stroke-linejoin="round"/>
    <path d="M1.5 71.1V162.7H185.8V71.1H1.5Z" fill="#B25C59" stroke="white" stroke-width="2" stroke-linecap="round" stroke-linejoin="round"/>
    <path d="M185.8 71.1V162.7H301.5V71.1H185.8Z" fill="#B25C59" stroke="white" stroke-width="2" stroke-linecap="round" stroke-linejoin="round"/>
    <path d="M247.3 99.4L261.1 113.3L237.7 136.7L223.8 122.9L247.3 99.4Z" fill="white" stroke="white" stroke-linecap="round" stroke-linejoin="round"/>
    <path d="M218.1 138.3L216.6 144L222.2 142.5L218.1 138.3Z" fill="white" stroke="white" stroke-linecap="round" stroke-linejoin="round"/>
    <path d="M254.7 91.9L249.4 97.3L263.3 111.1L268.6 105.8L254.7 91.9Z" fill="white" stroke="white" stroke-linecap="round" stroke-linejoin="round"/>
    <path d="M191 22H198.3L189.1 36L198.3 50.3H191L181.9 36L191 22Z" fill="white" stroke="white" stroke-linecap="round" stroke-linejoin="round"/>
    <path d="M220.5 15.8L206.7 57.2H200.1L214 15.8H220.5Z" fill="white" stroke="white" stroke-linecap="round" stroke-linejoin="round"/>
    <path d="M229.6 22H222.3L231.5 36L222.3 50.3H229.6L238.7 36L229.6 22Z" fill="white" stroke="white" stroke-linecap="round" stroke-linejoin="round"/>
    <path d="M77.6 14.5L74.2 19.1L69.4 16.1L68 21.7L62.4 20.8L63.3 26.4L57.8 27.7L60.7 32.6L56.1 35.9L60.7 39.3L57.8 44.1L63.3 45.4L62.4 51.1L68 50.2L69.4 55.7L74.2 52.7L77.6 57.4L80.9 52.7L85.8 55.7L87.1 50.2L92.7 51.1L91.8 45.4L97.4 44.1L94.4 39.3L99 35.9L94.4 32.6L97.4 27.7L91.8 26.4L92.7 20.8L87.1 21.7L85.8 16.1L80.9 19.1L77.6 14.5ZM77.6 27.9C78.6 27.9 79.7 28.1 80.6 28.5C81.6 28.9 82.5 29.5 83.2 30.2C84 31 84.6 31.9 85 32.8C85.4 33.8 85.6 34.9 85.6 35.9C85.6 37 85.4 38 85 39C84.6 40 84 40.9 83.2 41.6C82.5 42.3 81.6 42.9 80.6 43.3C79.7 43.7 78.6 44 77.6 44C76.5 44 75.5 43.7 74.5 43.3C73.5 42.9 72.6 42.3 71.9 41.6C71.1 40.9 70.5 40 70.1 39C69.7 38 69.5 37 69.5 35.9C69.5 33.8 70.4 31.7 71.9 30.2C73.4 28.7 75.4 27.9 77.6 27.9Z" fill="white" stroke="white" stroke-linecap="round" stroke-linejoin="round"/>
    <path d="M44.3 25.4L41.1 29.4L37.2 26.2L36.1 31.2L31.1 30L32.3 35L27.3 36.1L30.5 40L26.5 43.2L31.1 45.4L28.9 49.9L33.9 49.9L33.9 55L38.5 52.8L40.7 57.4L43.8 53.4L47.8 56.5L48.9 51.6L53.8 52.7L52.7 47.8L57.6 46.7L54.4 42.7L58.4 39.6L53.8 37.4L56.1 32.8L51 32.9L51 27.8L46.4 30L44.3 25.4ZM42.5 35C43.3 35 44.1 35.1 44.9 35.4C45.7 35.8 46.4 36.2 47 36.8C47.6 37.4 48.1 38.1 48.4 38.9C48.7 39.7 48.9 40.5 48.9 41.4C48.9 42.2 48.7 43.1 48.4 43.8C48.1 44.6 47.6 45.3 47 45.9C46.4 46.5 45.7 47 44.9 47.3C44.1 47.6 43.3 47.8 42.5 47.8C41.6 47.8 40.8 47.6 40 47.3C39.2 47 38.5 46.5 37.9 45.9C37.3 45.3 36.9 44.6 36.5 43.8C36.2 43.1 36 42.2 36 41.4C36 40.5 36.2 39.7 36.5 38.9C36.9 38.1 37.3 37.4 37.9 36.8C38.5 36.2 39.2 35.8 40 35.4C40.8 35.1 41.6 35 42.5 35V35Z" fill="white" stroke="white" stroke-linecap="round" stroke-linejoin="round"/>
    <path d="M123.3 89.3H79.8V104.1H123.3V89.3Z" fill="white" stroke="white" stroke-linecap="round" stroke-linejoin="round"/>
    <path d="M76.3 89H63.7V104.4H76.3V89Z" fill="white" stroke="white" stroke-linecap="round" stroke-linejoin="round"/>
    <path d="M123.6 108.3H108.7V123.6H123.6V108.3Z" fill="white" stroke="white" stroke-linecap="round" stroke-linejoin="round"/>
    <path d="M104.3 108.3H64.1V123.6H104.3V108.3Z" fill="white" stroke="white" stroke-width="1" stroke-linecap="round" stroke-linejoin="round"/>
    <path d="M123.4 127.8H86.9V142.7H123.4V127.8Z" fill="white" stroke="white" stroke-linecap="round" stroke-linejoin="round"/>
    <path d="M83 127.7H63.8V142.8H83V127.7Z" fill="white" stroke="white" stroke-linecap="round" stroke-linejoin="round"/>
    <path d="M221.7 125L218.8 135.7L224.8 141.8L235.5 138.9L221.7 125Z" fill="white" stroke="white" stroke-linecap="round" stroke-linejoin="round"/>
</svg>