<svg role="img" aria-label="" viewBox="0 0 301 227" fill="none" xmlns="http://www.w3.org/2000/svg">
    <path d="M76 50.2V86H15.5V70.5H34V104.5H15.5V120H46V97H85V175.5H70V111.5H56V133H16V169H55V142H27.5V157H42V179.5H19V199.5H53V185H64.5V207.5H22.5V217.5H81.5V196.5L99.7 197" stroke="#B25C59" stroke-width="4" stroke-linejoin="round"/>
    <path d="M215 1.9H1.7V50.2H215V1.9Z" fill="#B25C59" stroke="white" stroke-width="2" stroke-linecap="round" stroke-linejoin="round"/>
    <path d="M173.3 13.7L176.7 11.4L180.8 10.6L184.8 11.4L188.3 13.7L190.6 17.2L191.4 21.2L190.6 25.3L188.3 28.7L184.8 31L180.8 31.9L176.7 31L173.3 28.7L171 25.3L170.1 21.2L171 17.2L173.3 13.7Z" stroke="white" stroke-width="4" stroke-linecap="round" stroke-linejoin="round"/>
    <path d="M188.3 28.7C192.3 33 196.3 37.2 200.4 41.4" stroke="white" stroke-width="6" stroke-linejoin="round"/>
    <path d="M299.7 75.2H99.7V105.2H299.7V75.2Z" fill="#B25C59" stroke="white" stroke-width="2" stroke-linejoin="round"/>
    <path d="M299.7 105.2H99.7V225.2H299.7V105.2Z" fill="#B25C59" stroke="white" stroke-width="2" stroke-linejoin="round"/>
    <path d="M23.3 22.8C24.3 22.8 25.3 22.9 26.1 23.3C27 23.7 27.7 24.2 28.4 24.9C29 25.6 29.5 26.4 29.8 27.3C30.2 28.3 30.3 29.3 30.3 30.4C30.3 31.4 30.2 32.4 29.8 33.3C29.5 34.2 29.1 35 28.5 35.6C27.9 36.3 27.2 36.8 26.4 37.2C25.6 37.5 24.7 37.7 23.7 37.7H12.7V33.3H22.4C22.9 33.3 23.3 33.2 23.8 33.1C24.2 33 24.6 32.8 24.9 32.6C25.2 32.3 25.5 32 25.7 31.7C25.8 31.3 25.9 30.9 25.9 30.4C25.9 29.5 25.6 28.7 25 28.2C24.4 27.7 23.7 27.4 22.8 27.4H19.9C18.7 27.4 17.6 27.3 16.6 27C15.6 26.8 14.8 26.4 14.1 25.8C13.4 25.2 12.9 24.5 12.5 23.6C12.1 22.7 11.9 21.6 11.9 20.4C11.9 19.5 12.1 18.6 12.4 17.8C12.7 17 13.1 16.3 13.6 15.6C14.2 15 14.9 14.5 15.6 14.1C16.4 13.7 17.3 13.6 18.2 13.6H28.2V18.3H20.1C19.6 18.3 19.2 18.3 18.8 18.4C18.4 18.4 18 18.5 17.7 18.7C17.4 18.8 17.2 19.1 17 19.4C16.8 19.7 16.7 20.1 16.7 20.6C16.7 21.2 16.9 21.7 17.3 22.1C17.7 22.6 18.3 22.8 19 22.8H23.3Z" fill="white"/>
    <path d="M32.6 26.1C32.6 25.2 32.8 24.4 33.1 23.6C33.5 22.9 33.9 22.2 34.5 21.6C35 21 35.6 20.5 36.3 20.2C37 19.8 37.8 19.7 38.5 19.7H42.5C43.4 19.7 44.3 19.9 45 20.3C45.7 20.6 46.3 21.1 46.8 21.8C47.3 22.3 47.7 23 47.9 23.8C48.2 24.5 48.3 25.2 48.3 25.9V30.5H36.8V31.5C36.8 32.3 37.1 32.9 37.5 33.3C38 33.7 38.6 33.8 39.4 33.8H47.7V37.8H38.5C37.7 37.8 36.9 37.7 36.2 37.3C35.5 37 34.9 36.6 34.4 36C33.8 35.5 33.4 34.8 33.1 34.1C32.8 33.3 32.6 32.5 32.6 31.6V26.1ZM36.9 27.2H44.2V27C44.2 26.1 44 25.3 43.5 24.7C43 24.1 42.4 23.8 41.6 23.8H39.4C39 23.8 38.7 23.9 38.4 24.1C38.1 24.2 37.8 24.5 37.6 24.7C37.4 25 37.2 25.4 37 25.8C36.9 26.1 36.9 26.6 36.9 27L36.9 27.2Z" fill="white"/>
    <path d="M50.5 25.4C50.6 24.6 50.8 23.9 51 23.2C51.3 22.5 51.7 21.9 52.2 21.4C52.8 20.9 53.4 20.5 54.2 20.2C55 19.8 55.9 19.7 56.9 19.7H59C60.1 19.7 61 19.8 61.8 20.2C62.6 20.5 63.3 21 63.8 21.6C64.3 22.2 64.7 22.8 65 23.6C65.2 24.3 65.3 25.1 65.3 25.8V37.7H55.3C54.5 37.7 53.8 37.6 53.2 37.3C52.6 37 52 36.6 51.6 36.1C51.2 35.6 50.9 35.1 50.7 34.4C50.5 33.7 50.4 33 50.4 32.3C50.4 31.5 50.5 30.8 50.7 30.2C50.9 29.6 51.2 29 51.6 28.6C52 28.1 52.5 27.7 53.1 27.5C53.7 27.2 54.4 27 55.2 27H61.3V26.7C61.3 26.3 61.2 25.9 61.2 25.5C61.1 25.1 61 24.8 60.8 24.6C60.6 24.3 60.3 24.1 59.9 24C59.5 23.8 59 23.7 58.4 23.7H57.5C56.6 23.7 55.9 23.9 55.5 24.1C55.1 24.4 54.8 24.8 54.7 25.4L50.5 25.4ZM54.2 32.3C54.2 32.9 54.3 33.3 54.6 33.7C54.8 33.9 55.1 34.1 55.4 34.1H61.3V30.5H55.4C55.1 30.5 54.8 30.6 54.6 30.9C54.3 31.2 54.2 31.7 54.2 32.3Z" fill="white"/>
    <path d="M90.6 33.7C91.1 33.7 91.6 33.5 92 33.3C92.4 33 92.7 32.6 92.8 32.1H97C96.8 33.8 96.2 35.2 95 36.2C93.9 37.2 92.4 37.7 90.6 37.7H89.1C88.1 37.7 87.2 37.6 86.3 37.3C85.5 37 84.8 36.5 84.2 36C83.7 35.4 83.2 34.7 82.9 33.9C82.6 33 82.4 32.1 82.4 31.1V26.3C82.4 25.2 82.6 24.3 82.9 23.5C83.2 22.7 83.7 22 84.2 21.5C84.8 20.9 85.5 20.5 86.3 20.2C87.2 19.8 88.1 19.7 89.1 19.7H90.6C92.5 19.7 94 20.2 95.1 21.2C96.2 22.2 96.9 23.6 97 25.4H92.8C92.7 24.9 92.4 24.5 92.1 24.2C91.7 23.9 91.2 23.7 90.6 23.7H89.1C88.4 23.7 87.7 24 87.2 24.5C86.8 25 86.5 25.6 86.5 26.4V31C86.5 31.8 86.8 32.4 87.2 32.9C87.7 33.4 88.4 33.7 89.1 33.7H90.6Z" fill="white"/>
    <path d="M72.1 23.4C72.4 22.8 72.8 22.3 73.4 21.9C73.9 21.5 74.6 21.2 75.2 20.9C75.9 20.6 76.6 20.4 77.4 20.2C78.1 20.1 78.9 20 79.7 20H80.1V24.4H79.7C78.8 24.4 77.9 24.6 77 25C76.1 25.3 75.3 25.7 74.5 26.3C73.8 26.8 73.2 27.5 72.7 28.1C72.3 28.8 72.1 29.5 72.1 30.2V37.7H67.7V19.5H72.1V23.4Z" fill="white"/>
    <path d="M106.3 23.7C105.7 23.7 105.2 23.8 104.8 24C104.4 24.1 104.1 24.3 103.9 24.6C103.7 24.8 103.5 25.1 103.4 25.5C103.4 25.9 103.3 26.3 103.3 26.7V37.7H99.3V13.6H103.3V20.1C103.7 19.9 104 19.8 104.4 19.8C104.8 19.7 105.3 19.7 105.7 19.7H107.8C108.9 19.7 109.8 19.8 110.6 20.2C111.4 20.5 112 21 112.6 21.6C113.1 22.2 113.5 22.8 113.8 23.6C114 24.3 114.2 25.1 114.2 25.8V37.7H110.1V26.7C110.1 26.3 110.1 25.9 110 25.5C110 25.1 109.8 24.8 109.6 24.6C109.4 24.3 109.1 24.1 108.7 24C108.3 23.8 107.8 23.7 107.2 23.7L106.3 23.7Z" fill="white"/>
    <path d="M117 38.6V34.5H121.3V38.6H117Z" fill="white"/>
    <path d="M124.1 38.6V34.5H128.3V38.6H124.1Z" fill="white"/>
    <path d="M131.2 38.6V34.5H135.4V38.6H131.2Z" fill="white"/>
    <path d="M168.3 165.3H163.2L165.6 157.3L158.5 134.1H163.6L168 148.9L172.4 134.1H177.5L168.3 165.3Z" fill="white"/>
    <path d="M189.8 134.1C191.2 134.1 192.4 134.3 193.4 134.7C194.5 135.1 195.4 135.7 196.1 136.4C196.9 137.1 197.4 138 197.8 139.1C198.2 140.1 198.4 141.3 198.4 142.6V148.8C198.4 150.1 198.2 151.3 197.8 152.4C197.4 153.4 196.9 154.3 196.1 155.1C195.4 155.8 194.5 156.4 193.4 156.8C192.4 157.2 191.2 157.4 189.8 157.4H187.9C186.6 157.4 185.4 157.2 184.4 156.8C183.3 156.4 182.4 155.8 181.6 155.1C180.9 154.3 180.3 153.4 179.9 152.4C179.6 151.3 179.4 150.1 179.4 148.8V142.6C179.4 141.3 179.6 140.1 179.9 139.1C180.3 138 180.9 137.1 181.6 136.4C182.4 135.7 183.3 135.1 184.4 134.7C185.4 134.3 186.6 134.1 187.9 134.1H189.8ZM187.9 139.3C187 139.3 186.2 139.6 185.5 140.3C184.9 140.9 184.6 141.7 184.6 142.7V148.7C184.6 149.7 184.9 150.5 185.5 151.1C186.2 151.8 187 152.1 187.9 152.1H189.8C190.8 152.1 191.6 151.8 192.2 151.1C192.8 150.5 193.2 149.7 193.2 148.7V142.7C193.2 141.7 192.8 140.9 192.2 140.3C191.6 139.6 190.8 139.3 189.8 139.3H187.9Z" fill="white"/>
    <path d="M211.9 152.1C212.7 152.1 213.3 152 213.7 151.9C214.2 151.7 214.6 151.4 214.9 151.1C215.2 150.8 215.4 150.5 215.5 150C215.6 149.6 215.7 149.1 215.7 148.7V134.1H221.1V157.4H215.7V156.8C215.2 157 214.7 157.1 214.1 157.2C213.6 157.3 213 157.4 212.3 157.4H210C208.6 157.4 207.4 157.1 206.4 156.7C205.4 156.2 204.5 155.6 203.9 154.9C203.2 154.1 202.7 153.3 202.3 152.3C202 151.3 201.8 150.4 201.8 149.4V134.1H207.1V148.3C207.1 148.8 207.1 149.3 207.2 149.8C207.3 150.3 207.5 150.7 207.8 151C208.1 151.4 208.4 151.7 208.9 151.9C209.4 152 210.1 152.1 210.9 152.1L211.9 152.1Z" fill="white"/>
    <path d="M230.4 138.8C230.9 138.1 231.4 137.5 232.1 137C232.9 136.4 233.7 136 234.5 135.6C235.4 135.3 236.3 135 237.3 134.8C238.3 134.6 239.3 134.5 240.2 134.5H240.8V140.2H240.2C239.1 140.2 238 140.4 236.9 140.9C235.7 141.3 234.6 141.9 233.6 142.6C232.7 143.3 231.9 144.1 231.3 145C230.7 145.9 230.4 146.8 230.4 147.7V157.4H224.8V133.9H230.4V138.8Z" fill="white"/>
    <path d="M152.1 196.5H147L142.5 181.8L138.2 196.5H133.1L126 173.2H131.1L135.6 188L139.9 173.2H145.1L149.5 187.9L153.9 173.2H159L152.1 196.5Z" fill="white"/>
    <path d="M161 181.5C161 180.3 161.2 179.3 161.7 178.3C162.1 177.3 162.7 176.4 163.4 175.7C164.1 174.9 164.9 174.3 165.8 173.9C166.7 173.4 167.6 173.2 168.5 173.2H173.8C174.9 173.2 176 173.4 176.9 174C177.9 174.5 178.6 175.1 179.2 175.9C179.9 176.7 180.4 177.5 180.7 178.5C181.1 179.4 181.3 180.4 181.3 181.3V187.2H166.4V188.4C166.4 189.5 166.7 190.3 167.3 190.8C168 191.2 168.8 191.4 169.8 191.4H180.4V196.6H168.6C167.5 196.6 166.6 196.4 165.7 196C164.7 195.6 163.9 195 163.2 194.3C162.6 193.6 162 192.7 161.6 191.8C161.2 190.8 161 189.7 161 188.6V181.5ZM166.5 182.8H176V182.6C176 181.4 175.6 180.5 175 179.7C174.4 178.9 173.6 178.5 172.6 178.5H169.7C169.2 178.5 168.8 178.6 168.4 178.9C168 179.1 167.7 179.4 167.4 179.7C167.1 180.1 166.9 180.5 166.7 181.1C166.6 181.5 166.5 182.1 166.5 182.6L166.5 182.8Z" fill="white"/>
    <path d="M194.7 173.2C196 173.2 197.2 173.4 198.3 173.8C199.3 174.2 200.2 174.8 201 175.5C201.7 176.3 202.3 177.1 202.7 178.2C203.1 179.2 203.3 180.4 203.3 181.7V188C203.3 189.3 203.1 190.4 202.7 191.5C202.3 192.5 201.7 193.4 201 194.2C200.2 194.9 199.3 195.5 198.3 195.9C197.2 196.3 196 196.5 194.7 196.5H192.9C191.5 196.5 190.3 196.3 189.3 195.9C188.2 195.5 187.3 194.9 186.6 194.2C185.8 193.4 185.3 192.5 184.9 191.5C184.5 190.4 184.3 189.3 184.3 188V181.7V181.3V165.3H189.7V173.8C190.8 173.4 192 173.2 193.2 173.2L194.7 173.2ZM192.9 178.5C191.9 178.5 191.1 178.8 190.5 179.4C190 180 189.7 180.8 189.7 181.7V187.8C189.7 188.8 190 189.6 190.5 190.3C191.1 190.9 191.9 191.2 192.9 191.2H194.7C195.7 191.2 196.5 190.9 197.1 190.3C197.7 189.6 198 188.8 198 187.8V181.8C198 180.8 197.7 180 197.1 179.4C196.5 178.8 195.7 178.5 194.7 178.5H192.9Z" fill="white"/>
    <path d="M223 177.7H213.9C213.5 177.7 213.2 177.8 212.9 177.9C212.6 178.1 212.4 178.3 212.2 178.5C212.1 178.7 211.9 179 211.8 179.3C211.7 179.6 211.7 179.9 211.7 180.1C211.7 180.7 211.9 181.3 212.2 181.7C212.6 182.2 213.1 182.4 213.7 182.4H218.8C219.9 182.4 220.8 182.6 221.6 183C222.4 183.3 223.1 183.9 223.6 184.5C224.1 185.1 224.5 185.9 224.8 186.8C225.1 187.7 225.2 188.6 225.2 189.6V189.8C225.2 190.8 225 191.7 224.7 192.5C224.4 193.3 223.9 194 223.4 194.6C222.8 195.2 222.1 195.6 221.3 196C220.5 196.3 219.7 196.5 218.8 196.5H207.7V192H217.2C217.9 192 218.6 191.8 219.2 191.4C219.8 191 220.1 190.4 220.1 189.6V189.6C220.1 189.2 220 188.8 219.8 188.5C219.7 188.2 219.5 187.9 219.2 187.7C218.9 187.5 218.6 187.4 218.3 187.3C218 187.2 217.6 187.1 217.2 187.1H213.1C211.8 187.1 210.7 186.9 209.8 186.5C208.9 186.1 208.2 185.5 207.7 184.9C207.2 184.2 206.9 183.4 206.7 182.6C206.5 181.7 206.4 180.8 206.4 180C206.4 179 206.6 178.2 206.8 177.3C207.1 176.5 207.5 175.7 208 175.1C208.6 174.4 209.3 173.9 210.1 173.5C210.8 173.1 211.7 173 212.8 173H223L223 177.7Z" fill="white"/>
    <path d="M234.1 196.5H228.7V173.2H234.1V196.5ZM234.1 170.7H228.7V165.3H234.1V170.7Z" fill="white"/>
    <path d="M236.9 173.2H241.2V165.3H246.6V173.2H250.9V178.5H246.6V196.5H241.2V178.5H236.9V173.2Z" fill="white"/>
    <path d="M253.1 181.5C253.1 180.3 253.3 179.3 253.7 178.3C254.2 177.3 254.7 176.4 255.4 175.7C256.1 174.9 256.9 174.3 257.9 173.9C258.8 173.4 259.7 173.2 260.6 173.2H265.8C267 173.2 268.1 173.4 269 174C269.9 174.5 270.7 175.1 271.3 175.9C271.9 176.7 272.4 177.5 272.8 178.5C273.1 179.4 273.3 180.4 273.3 181.3V187.2H258.5V188.4C258.5 189.5 258.8 190.3 259.4 190.8C260 191.2 260.8 191.4 261.8 191.4H272.5V196.6H260.6C259.6 196.6 258.6 196.4 257.7 196C256.8 195.6 256 195 255.3 194.3C254.6 193.6 254.1 192.7 253.7 191.8C253.3 190.8 253.1 189.7 253.1 188.6V181.5ZM258.5 182.8H268V182.6C268 181.4 267.7 180.5 267.1 179.7C266.5 178.9 265.7 178.5 264.6 178.5H261.8C261.3 178.5 260.9 178.6 260.5 178.9C260.1 179.1 259.7 179.4 259.5 179.7C259.2 180.1 259 180.5 258.8 181.1C258.6 181.5 258.5 182.1 258.5 182.6L258.5 182.8Z" fill="white"/>
    <path d="M122.4 95.6L119.9 97.3L117 97.9L114.1 97.3L111.6 95.6L109.9 93.2L109.4 90.2L109.9 87.3L111.6 84.8L114.1 83.2L117 82.6L119.9 83.2L122.4 84.8L124.1 87.3L124.6 90.2L124.1 93.2L122.4 95.6Z" fill="white"/>
    <path d="M288.6 92.6L287.5 93.4L286.3 93.6L285 93.4L283.9 92.6L283.1 91.5L282.9 90.2L283.1 88.9L283.9 87.8L285 87.1L286.3 86.8L287.5 87.1L288.6 87.8L289.4 88.9L289.6 90.2L289.4 91.5L288.6 92.6Z" fill="white"/>
    <path d="M278.6 92.6L277.5 93.4L276.3 93.6L275 93.4L273.9 92.6L273.1 91.5L272.9 90.2L273.1 88.9L273.9 87.8L275 87.1L276.3 86.8L277.5 87.1L278.6 87.8L279.4 88.9L279.6 90.2L279.4 91.5L278.6 92.6Z" fill="white"/>
    <path d="M268.6 92.6L267.5 93.4L266.3 93.6L265 93.4L263.9 92.6L263.1 91.5L262.9 90.2L263.1 88.9L263.9 87.8L265 87.1L266.3 86.8L267.5 87.1L268.6 87.8L269.4 88.9L269.6 90.2L269.4 91.5L268.6 92.6Z" fill="white"/>
    <path d="M178.9 87.7H157.1V92.7H178.9V87.7Z" fill="white"/>
    <path d="M204.6 87.7H182.9V92.7H204.6V87.7Z" fill="white"/>
    <path d="M230.4 87.7H208.6V92.7H230.4V87.7Z" fill="white"/>
</svg>