<svg viewBox="0 0 216 220" fill="none" xmlns="http://www.w3.org/2000/svg">
    <path d="M106.7 49.6V68.6Z" fill="#C0DD6C"/>
    <path d="M106.7 49.6V68.6" stroke="#C0DD6C" stroke-width="4" stroke-linejoin="round"/>
    <path d="M207.9 68.6H7.9V98.6H207.9V68.6Z" fill="#C0DD6C" stroke="#1A1A1A" stroke-width="2" stroke-linejoin="round"/>
    <path d="M207.9 98.6H7.9V218.6H207.9V98.6Z" fill="#C0DD6C" stroke="#1A1A1A" stroke-width="2" stroke-linejoin="round"/>
    <path d="M214.6 1.3H1.3V49.6H214.6V1.3Z" fill="#C0DD6C" stroke="#1A1A1A" stroke-width="2" stroke-linecap="round" stroke-linejoin="round"/>
    <path d="M172.8 13.1L176.2 10.8L180.3 10L184.4 10.8L187.8 13.1L190.1 16.6L190.9 20.6L190.1 24.7L187.8 28.1L184.4 30.4L180.3 31.2L176.2 30.4L172.8 28.1L170.5 24.7L169.7 20.6L170.5 16.6L172.8 13.1Z" stroke="#1A1A1A" stroke-width="4" stroke-linecap="round" stroke-linejoin="round"/>
    <path d="M187.8 28.1C191.8 32.4 195.9 36.6 199.9 40.8" stroke="#1A1A1A" stroke-width="6" stroke-linejoin="round"/>
    <path d="M22.9 22.1C23.9 22.1 24.8 22.3 25.6 22.7C26.5 23.1 27.3 23.6 27.9 24.3C28.5 25 29 25.8 29.3 26.7C29.7 27.6 29.9 28.7 29.9 29.8C29.9 30.8 29.7 31.8 29.4 32.7C29.1 33.6 28.6 34.4 28 35C27.4 35.7 26.7 36.2 25.9 36.6C25.1 36.9 24.2 37.1 23.2 37.1H12.2V32.7H22C22.4 32.7 22.9 32.6 23.3 32.5C23.8 32.4 24.1 32.2 24.4 31.9C24.7 31.7 25 31.4 25.2 31.1C25.4 30.7 25.5 30.3 25.5 29.8C25.5 28.9 25.2 28.1 24.5 27.6C24 27.1 23.2 26.8 22.3 26.8H19.4C18.2 26.8 17.1 26.7 16.1 26.4C15.1 26.2 14.3 25.8 13.6 25.2C12.9 24.6 12.4 23.9 12 23C11.6 22.1 11.4 21 11.4 19.8C11.4 18.9 11.6 18 11.9 17.2C12.2 16.4 12.6 15.7 13.2 15C13.7 14.4 14.4 13.9 15.2 13.5C16 13.1 16.8 12.9 17.8 12.9H27.7V17.7H19.6C19.1 17.7 18.7 17.7 18.3 17.8C17.9 17.8 17.5 17.9 17.2 18.1C16.9 18.2 16.7 18.5 16.5 18.8C16.4 19.1 16.3 19.5 16.3 20C16.3 20.6 16.5 21.1 16.9 21.5C17.3 21.9 17.8 22.1 18.5 22.1H22.9Z" fill="#1A1A1A"/>
    <path d="M32.2 25.5C32.2 24.6 32.3 23.8 32.7 23C33 22.3 33.4 21.6 34 21C34.5 20.4 35.2 19.9 35.9 19.6C36.6 19.2 37.3 19.1 38 19.1H42.1C43 19.1 43.8 19.3 44.5 19.7C45.2 20 45.8 20.5 46.3 21.1C46.8 21.7 47.2 22.4 47.5 23.2C47.7 23.9 47.9 24.6 47.9 25.3V29.9H36.4V30.9C36.4 31.7 36.6 32.3 37.1 32.7C37.6 33 38.2 33.2 39 33.2H47.2V37.2H38C37.2 37.2 36.5 37 35.8 36.7C35.1 36.4 34.4 36 33.9 35.4C33.4 34.9 33 34.2 32.6 33.5C32.3 32.7 32.2 31.9 32.2 31V25.5ZM36.4 26.5H43.8V26.4C43.8 25.4 43.5 24.7 43 24.1C42.6 23.5 41.9 23.2 41.1 23.2H38.9C38.5 23.2 38.2 23.3 37.9 23.5C37.6 23.6 37.3 23.8 37.1 24.1C36.9 24.4 36.7 24.8 36.6 25.2C36.5 25.5 36.4 25.9 36.4 26.4L36.4 26.5Z" fill="#1A1A1A"/>
    <path d="M50.1 24.8C50.1 24 50.3 23.3 50.6 22.6C50.9 21.9 51.3 21.3 51.8 20.8C52.3 20.3 53 19.9 53.7 19.6C54.5 19.2 55.4 19.1 56.4 19.1H58.6C59.6 19.1 60.6 19.2 61.3 19.6C62.1 19.9 62.8 20.4 63.3 21C63.8 21.6 64.2 22.2 64.5 23C64.8 23.7 64.9 24.5 64.9 25.2V37.1H54.8C54 37.1 53.3 37 52.7 36.7C52.1 36.4 51.6 36 51.1 35.5C50.7 35 50.4 34.5 50.2 33.8C50 33.1 49.9 32.4 49.9 31.7C49.9 30.9 50 30.2 50.3 29.6C50.5 29 50.8 28.4 51.2 28C51.6 27.5 52.1 27.1 52.7 26.9C53.3 26.6 54 26.4 54.7 26.4H60.8V26.1C60.8 25.7 60.8 25.3 60.7 24.9C60.6 24.5 60.5 24.2 60.3 24C60.1 23.7 59.8 23.5 59.4 23.4C59.1 23.2 58.6 23.1 57.9 23.1H57C56.1 23.1 55.4 23.2 55 23.5C54.6 23.8 54.3 24.2 54.2 24.8L50.1 24.8ZM53.7 31.7C53.7 32.3 53.9 32.7 54.1 33C54.3 33.3 54.6 33.5 54.9 33.5H60.8V29.9H54.9C54.6 29.9 54.3 30 54.1 30.3C53.9 30.6 53.7 31.1 53.7 31.7Z" fill="#1A1A1A"/>
    <path d="M90.1 33C90.7 33 91.2 32.9 91.6 32.7C92 32.4 92.2 32 92.3 31.5H96.6C96.4 33.2 95.7 34.6 94.6 35.6C93.5 36.6 92 37.1 90.1 37.1H88.6C87.6 37.1 86.7 37 85.9 36.7C85 36.4 84.4 35.9 83.8 35.4C83.2 34.8 82.8 34.1 82.4 33.3C82.1 32.4 82 31.5 82 30.5V25.7C82 24.6 82.1 23.7 82.4 22.9C82.8 22.1 83.2 21.4 83.8 20.9C84.4 20.3 85 19.9 85.9 19.6C86.7 19.2 87.6 19.1 88.6 19.1H90.1C92 19.1 93.5 19.6 94.6 20.6C95.8 21.6 96.4 23 96.6 24.8H92.4C92.2 24.3 92 23.8 91.6 23.6C91.2 23.3 90.7 23.1 90.1 23.1H88.6C87.9 23.1 87.3 23.4 86.8 23.9C86.3 24.4 86.1 25 86.1 25.8V30.4C86.1 31.2 86.3 31.8 86.8 32.3C87.3 32.8 87.9 33 88.6 33H90.1Z" fill="#1A1A1A"/>
    <path d="M71.6 22.7C71.9 22.2 72.4 21.7 72.9 21.3C73.5 20.9 74.1 20.5 74.8 20.3C75.4 20 76.2 19.8 76.9 19.6C77.7 19.5 78.4 19.4 79.2 19.4H79.7V23.8H79.2C78.3 23.8 77.5 24 76.6 24.3C75.7 24.7 74.8 25.1 74.1 25.7C73.4 26.2 72.7 26.9 72.3 27.5C71.8 28.2 71.6 28.9 71.6 29.6V37.1H67.2V18.9H71.6V22.7Z" fill="#1A1A1A"/>
    <path d="M105.8 23.1C105.2 23.1 104.7 23.2 104.3 23.4C103.9 23.5 103.6 23.7 103.4 24C103.2 24.2 103.1 24.5 103 24.9C102.9 25.3 102.9 25.7 102.9 26.1V37.1H98.9V12.9H102.9V19.4C103.2 19.3 103.6 19.2 104 19.2C104.4 19.1 104.8 19.1 105.2 19.1H107.4C108.4 19.1 109.3 19.2 110.1 19.6C110.9 19.9 111.6 20.4 112.1 21C112.6 21.6 113 22.2 113.3 23C113.6 23.7 113.7 24.5 113.7 25.2V37.1H109.7V26.1C109.7 25.7 109.6 25.3 109.6 24.9C109.5 24.5 109.3 24.2 109.1 24C108.9 23.7 108.6 23.5 108.2 23.4C107.8 23.2 107.3 23.1 106.7 23.1L105.8 23.1Z" fill="#1A1A1A"/>
    <path d="M116.6 37.9V33.9H120.8V37.9H116.6Z" fill="#1A1A1A"/>
    <path d="M123.6 37.9V33.9H127.9V37.9H123.6Z" fill="#1A1A1A"/>
    <path d="M130.7 37.9V33.9H134.9V37.9H130.7Z" fill="#1A1A1A"/>
    <path d="M76.5 158.7H71.5L73.8 150.7L66.8 127.5H71.8L76.3 142.3L80.7 127.5H85.8L76.5 158.7Z" fill="#1A1A1A"/>
    <path d="M98.1 127.5C99.4 127.5 100.6 127.7 101.6 128.1C102.7 128.5 103.6 129.1 104.3 129.8C105.1 130.5 105.7 131.4 106.1 132.4C106.5 133.5 106.7 134.7 106.7 136V142.2C106.7 143.5 106.5 144.7 106.1 145.8C105.7 146.8 105.1 147.7 104.3 148.5C103.6 149.2 102.7 149.8 101.6 150.2C100.6 150.6 99.4 150.7 98.1 150.7H96.2C94.9 150.7 93.7 150.6 92.6 150.2C91.6 149.8 90.6 149.2 89.9 148.5C89.1 147.7 88.6 146.8 88.2 145.8C87.8 144.7 87.6 143.5 87.6 142.2V136C87.6 134.7 87.8 133.5 88.2 132.4C88.6 131.4 89.1 130.5 89.9 129.8C90.6 129.1 91.6 128.5 92.6 128.1C93.7 127.7 94.9 127.5 96.2 127.5H98.1ZM96.2 132.7C95.2 132.7 94.4 133 93.8 133.7C93.1 134.3 92.8 135.1 92.8 136.1V142.1C92.8 143.1 93.1 143.9 93.8 144.5C94.4 145.2 95.2 145.5 96.2 145.5H98.1C99 145.5 99.8 145.2 100.5 144.5C101.1 143.9 101.4 143.1 101.4 142.1V136.1C101.4 135.1 101.1 134.3 100.5 133.7C99.8 133 99 132.7 98.1 132.7H96.2Z" fill="#1A1A1A"/>
    <path d="M120.2 145.5C120.9 145.5 121.5 145.4 122 145.3C122.5 145.1 122.9 144.8 123.1 144.5C123.4 144.2 123.6 143.9 123.8 143.4C123.9 143 124 142.5 124 142.1V127.5H129.3V150.7H124V150.2C123.5 150.4 122.9 150.5 122.4 150.6C121.8 150.7 121.2 150.7 120.6 150.7H118.2C116.9 150.7 115.7 150.5 114.6 150.1C113.6 149.6 112.8 149 112.1 148.3C111.4 147.5 110.9 146.7 110.5 145.7C110.2 144.7 110 143.8 110 142.8V127.5H115.4V141.7C115.4 142.2 115.4 142.7 115.5 143.2C115.6 143.7 115.8 144.1 116 144.4C116.3 144.8 116.7 145 117.2 145.3C117.7 145.4 118.3 145.5 119.1 145.5L120.2 145.5Z" fill="#1A1A1A"/>
    <path d="M138.7 132.2C139.1 131.5 139.7 130.9 140.4 130.4C141.1 129.8 141.9 129.4 142.8 129C143.6 128.6 144.6 128.4 145.6 128.2C146.5 128 147.5 127.9 148.5 127.9H149.1V133.6H148.5C147.4 133.6 146.3 133.8 145.1 134.3C143.9 134.7 142.9 135.3 141.9 136C140.9 136.7 140.2 137.5 139.6 138.4C139 139.3 138.7 140.2 138.7 141V150.7H133V127.3H138.7V132.2Z" fill="#1A1A1A"/>
    <path d="M60.4 189.9H55.2L50.8 175.2L46.4 189.9H41.3L34.3 166.6H39.3L43.8 181.4L48.2 166.6H53.3L57.7 181.3L62.1 166.6H67.2L60.4 189.9Z" fill="#1A1A1A"/>
    <path d="M69.3 174.9C69.3 173.7 69.5 172.7 69.9 171.7C70.3 170.7 70.9 169.8 71.6 169.1C72.3 168.3 73.1 167.7 74 167.3C75 166.8 75.9 166.6 76.8 166.6H82C83.2 166.6 84.2 166.8 85.2 167.4C86.1 167.8 86.9 168.5 87.5 169.3C88.1 170 88.6 170.9 89 171.9C89.3 172.8 89.5 173.8 89.5 174.7V180.6H74.7V181.8C74.7 182.9 75 183.7 75.6 184.2C76.2 184.6 77 184.8 78 184.8H88.7V190H76.8C75.8 190 74.8 189.8 73.9 189.4C73 188.9 72.2 188.4 71.5 187.7C70.8 187 70.3 186.1 69.9 185.2C69.5 184.2 69.3 183.1 69.3 182V174.9ZM74.7 176.2H84.2V176C84.2 174.8 83.9 173.8 83.3 173.1C82.7 172.3 81.8 171.9 80.8 171.9H78C77.5 171.9 77 172 76.6 172.3C76.2 172.5 75.9 172.8 75.6 173.1C75.4 173.5 75.1 173.9 75 174.5C74.8 174.9 74.7 175.5 74.7 176L74.7 176.2Z" fill="#1A1A1A"/>
    <path d="M103 166.6C104.3 166.6 105.5 166.8 106.5 167.2C107.6 167.6 108.5 168.2 109.2 168.9C110 169.6 110.6 170.5 111 171.6C111.4 172.6 111.6 173.8 111.6 175.1V181.4C111.6 182.6 111.4 183.8 111 184.9C110.6 185.9 110 186.8 109.2 187.6C108.5 188.3 107.6 188.9 106.5 189.3C105.5 189.7 104.3 189.9 103 189.9H101.1C99.8 189.9 98.6 189.7 97.5 189.3C96.5 188.9 95.6 188.3 94.8 187.6C94.1 186.8 93.5 185.9 93.1 184.9C92.7 183.8 92.5 182.6 92.5 181.4V175.1V174.7V158.7H97.9V167.2C99 166.8 100.2 166.6 101.5 166.6L103 166.6ZM101.1 171.8C100.1 171.8 99.4 172.2 98.8 172.8C98.2 173.4 97.9 174.1 97.9 175.1V181.2C97.9 182.2 98.2 183 98.8 183.7C99.4 184.3 100.1 184.6 101.1 184.6H103C103.9 184.6 104.7 184.3 105.3 183.7C105.9 183 106.2 182.2 106.2 181.2V175.2C106.2 174.2 105.9 173.4 105.3 172.8C104.7 172.2 103.9 171.8 103 171.8H101.1Z" fill="#1A1A1A"/>
    <path d="M131.3 171.1H122.1C121.7 171.1 121.4 171.2 121.1 171.3C120.9 171.5 120.7 171.6 120.5 171.9C120.3 172.1 120.2 172.4 120.1 172.7C120 173 119.9 173.3 119.9 173.5C119.9 174.1 120.1 174.7 120.5 175.1C120.9 175.6 121.4 175.8 121.9 175.8H127C128.1 175.8 129 176 129.8 176.4C130.7 176.7 131.3 177.2 131.8 177.9C132.4 178.5 132.8 179.3 133 180.2C133.3 181.1 133.4 182 133.4 183V183.1C133.4 184.2 133.3 185.1 132.9 185.9C132.6 186.7 132.2 187.4 131.6 188C131 188.6 130.4 189 129.6 189.4C128.8 189.7 127.9 189.9 127 189.9H116V185.3H125.5C126.2 185.3 126.8 185.1 127.4 184.8C128 184.4 128.3 183.8 128.4 183V183C128.4 182.6 128.3 182.2 128.1 181.9C127.9 181.6 127.7 181.3 127.5 181.1C127.2 180.9 126.9 180.8 126.5 180.7C126.2 180.6 125.9 180.5 125.5 180.5H121.4C120 180.5 118.9 180.3 118 179.9C117.2 179.5 116.5 178.9 116 178.3C115.5 177.6 115.1 176.8 115 176C114.8 175.1 114.7 174.2 114.7 173.4C114.7 172.4 114.8 171.6 115.1 170.7C115.4 169.8 115.8 169.1 116.3 168.5C116.8 167.8 117.5 167.3 118.3 166.9C119.1 166.5 120 166.4 121 166.4H131.3L131.3 171.1Z" fill="#1A1A1A"/>
    <path d="M142.4 189.9H137V166.6H142.4V189.9ZM142.4 164.1H137V158.7H142.4V164.1Z" fill="#1A1A1A"/>
    <path d="M145.1 166.6H149.5V158.7H154.9V166.6H159.2V171.8H154.9V189.9H149.5V171.8H145.1V166.6Z" fill="#1A1A1A"/>
    <path d="M161.3 174.9C161.3 173.7 161.6 172.7 162 171.7C162.4 170.7 163 169.8 163.7 169.1C164.4 168.3 165.2 167.7 166.1 167.3C167 166.8 167.9 166.6 168.8 166.6H174.1C175.3 166.6 176.3 166.8 177.2 167.4C178.2 167.8 178.9 168.5 179.6 169.3C180.2 170 180.7 170.9 181 171.9C181.4 172.8 181.6 173.8 181.6 174.7V180.6H166.7V181.8C166.7 182.9 167 183.7 167.7 184.2C168.3 184.6 169.1 184.8 170.1 184.8H180.7V190H168.9C167.9 190 166.9 189.8 166 189.4C165 188.9 164.2 188.4 163.5 187.7C162.9 187 162.3 186.1 161.9 185.2C161.5 184.2 161.3 183.1 161.3 182V174.9ZM166.8 176.2H176.3V176C176.3 174.8 176 173.8 175.3 173.1C174.7 172.3 173.9 171.9 172.9 171.9H170C169.5 171.9 169.1 172 168.7 172.3C168.3 172.5 168 172.8 167.7 173.1C167.4 173.5 167.2 173.9 167 174.5C166.9 174.9 166.8 175.5 166.8 176L166.8 176.2Z" fill="#1A1A1A"/>
    <path d="M30.6 89L28.2 90.7L25.2 91.3L22.3 90.7L19.8 89L18.2 86.5L17.6 83.6L18.2 80.7L19.8 78.2L22.3 76.6L25.2 76L28.2 76.6L30.6 78.2L32.3 80.7L32.9 83.6L32.3 86.5L30.6 89Z" fill="#1A1A1A"/>
    <path d="M196.9 86L195.8 86.8L194.5 87L193.2 86.8L192.1 86L191.4 84.9L191.1 83.6L191.4 82.3L192.1 81.2L193.2 80.5L194.5 80.2L195.8 80.5L196.9 81.2L197.6 82.3L197.9 83.6L197.6 84.9L196.9 86Z" fill="#1A1A1A"/>
    <path d="M186.9 86L185.8 86.8L184.5 87L183.2 86.8L182.1 86L181.4 84.9L181.1 83.6L181.4 82.3L182.1 81.2L183.2 80.5L184.5 80.2L185.8 80.5L186.9 81.2L187.6 82.3L187.9 83.6L187.6 84.9L186.9 86Z" fill="#1A1A1A"/>
    <path d="M176.9 86L175.8 86.8L174.5 87L173.2 86.8L172.1 86L171.4 84.9L171.1 83.6L171.4 82.3L172.1 81.2L173.2 80.5L174.5 80.2L175.8 80.5L176.9 81.2L177.6 82.3L177.9 83.6L177.6 84.9L176.9 86Z" fill="#1A1A1A"/>
    <path d="M87.1 81.1H65.4V86.1H87.1V81.1Z" fill="#1A1A1A"/>
    <path d="M112.9 81.1H91.1V86.1H112.9V81.1Z" fill="#1A1A1A"/>
    <path d="M138.6 81.1H116.9V86.1H138.6V81.1Z" fill="#1A1A1A"/>
</svg>